<?xml version="1.0" encoding="utf-8"?>
<!-- Generator: Adobe Illustrator 19.1.0, SVG Export Plug-In . SVG Version: 6.00 Build 0)  -->
<svg version="1.1" id="Capa_1" xmlns="http://www.w3.org/2000/svg" xmlns:xlink="http://www.w3.org/1999/xlink" x="0px" y="0px"
	 viewBox="-54 145.3 502.7 502.7" style="enable-background:new -54 145.3 502.7 502.7;" xml:space="preserve">
<style type="text/css">
	.st0{fill:#FFFFFF;}
</style>
<g>
	<g>
		<g>
			<polygon class="st0" points="29.2,379.4 48.5,451.4 77,451.4 113,339.5 83.7,339.5 62.4,412.9 43.6,339.5 15,339.5 -4.3,412.9 
				-25.2,339.5 -54,339.5 -18.6,451.4 10.2,451.4 			"/>
			<polygon class="st0" points="211.5,339.5 182.9,339.5 163.6,412.9 142.5,339.5 113.8,339.5 149.2,451.4 178.1,451.4 197,379.4 
				216.4,451.4 244.8,451.4 280.8,339.5 251.6,339.5 230.2,412.9 			"/>
			<polygon class="st0" points="419.4,339.5 398,412.9 379.3,339.5 350.7,339.5 331.3,412.9 310.4,339.5 281.6,339.5 317.1,451.4 
				345.9,451.4 364.8,379.4 384.1,451.4 412.7,451.4 448.7,339.5 			"/>
			<path class="st0" d="M197.3,181.1c-86.6,0-161,51.2-195.3,124.8h390.6C358.3,232.3,283.9,181.1,197.3,181.1z"/>
			<path class="st0" d="M197.3,612.2c86.6,0,161-51.1,195.3-124.8H2.1C36.3,561.1,110.8,612.2,197.3,612.2z"/>
		</g>
	</g>
</g>
</svg>
