<?xml version="1.0" encoding="utf-8"?>
<!-- Generator: Adobe Illustrator 19.1.0, SVG Export Plug-In . SVG Version: 6.00 Build 0)  -->
<svg version="1.1" id="Capa_1" xmlns="http://www.w3.org/2000/svg" xmlns:xlink="http://www.w3.org/1999/xlink" x="0px" y="0px"
	 viewBox="-60 152 490 490" style="enable-background:new -60 152 490 490;" xml:space="preserve">
<style type="text/css">
	.st0{fill:#FFFFFF;}
</style>
<g>
	<path class="st0" d="M379.4,443.5c-0.8-1.3-2.3-2.1-3.8-2.1h-24c-1.7,0-3.3,1-4,2.5l-31.5,64h-86.9c-1.8,0-3.4,1.1-4.1,2.7
		l-19.6,39.8H41.3c-2.5,0-4.5,2-4.5,4.5v21.6c0,2.5,2,4.5,4.5,4.5h36.3l-26.1,54.4c-0.7,1.4-0.6,3.1,0.2,4.4
		c0.8,1.3,2.3,2.1,3.8,2.1h24c1.7,0,3.3-1,4-2.5l28.1-58.5h171.6l28.1,58.5c0.8,1.5,2.3,2.5,4,2.5h24c1.6,0,3-0.8,3.8-2.1
		c0.8-1.3,0.9-3,0.2-4.4L315.2,581l64.4-133.1C380.3,446.5,380.2,444.8,379.4,443.5z M304.5,531.3l-9.4,19.1h-63.5l9.3-19.1
		L304.5,531.3z"/>
	<path class="st0" d="M162.8,197.9c-0.1,0-0.2,0-0.2,0c-0.1,0-0.2,0-0.2,0C67.3,197.9-10,259.9-10,336c0,1.8,1.4,3.3,3.2,3.4
		c1,0.1,2.1-0.3,2.7-1c12.6-13,29.5-20.2,47.6-20.2c18,0,34.8,7.1,47.4,20c1.3,1.3,3.3,1.4,4.6,0.2c18.7-16.1,42.4-25,67-25.4
		c24.6,0.4,48.3,9.3,67,25.4c1.4,1.2,3.4,1.1,4.6-0.2c12.6-12.9,29.4-19.9,47.4-20c18.1,0,35,7.2,47.6,20.2c0.7,0.7,1.7,1.1,2.7,1
		c1.8-0.1,3.2-1.6,3.2-3.4C335.1,259.9,257.9,197.9,162.8,197.9z"/>
	<path class="st0" d="M162.6,642c7.5,0,13.6-6.1,13.6-13.6V598c0-0.5-0.2-0.9-0.5-1.2c-0.3-0.3-0.8-0.5-1.3-0.5
		c-11.8,0-9.4,0-23.6,0c0,0-0.1,0-0.1,0c-0.4,0-0.9,0.2-1.2,0.5c-0.3,0.3-0.5,0.8-0.5,1.2v30.4C149,635.9,155.1,642,162.6,642z"/>
	<path class="st0" d="M174.4,329.3c-5.8-1.5-17.9-1.5-23.7,0.1c-0.8,0.2-1.7,0.7-1.7,1.7v202.4c0,0.9,0.8,1.7,1.7,1.7h23.7
		c0.9,0,1.7-0.8,1.7-1.7V331C176.1,330,175.2,329.5,174.4,329.3z"/>
	<path class="st0" d="M162.6,152C162.6,152,162.6,152,162.6,152L162.6,152c-7.5,0-13.6,6.1-13.6,13.6v19.2c0,0.5,0.2,0.9,0.5,1.2
		c0.3,0.3,0.7,0.5,1.2,0.5c0,0,0.1,0,0.1,0c4.6-0.2,8.3-0.4,11.8-0.4c3.5,0,7.2,0.1,11.8,0.4c0,0,0.1,0,0.1,0c0.4,0,0.9-0.2,1.2-0.5
		c0.3-0.3,0.5-0.8,0.5-1.2v-19.2C176.1,158.1,170.1,152,162.6,152z"/>
</g>
</svg>
