<?xml version="1.0" encoding="utf-8"?>
<!-- Generator: Adobe Illustrator 19.1.0, SVG Export Plug-In . SVG Version: 6.00 Build 0)  -->
<svg version="1.1" id="Capa_1" xmlns="http://www.w3.org/2000/svg" xmlns:xlink="http://www.w3.org/1999/xlink" x="0px" y="0px"
	 viewBox="-289 381.1 31.9 31.9" style="enable-background:new -289 381.1 31.9 31.9;" xml:space="preserve">
<style type="text/css">
	.st0{fill:#FFFFFF;}
</style>
<g>
	<g>
		<path class="st0" d="M-264,383.7c0-1.4-1.2-2.6-2.6-2.6h-17.9c-1.4,0-2.5,1.1-2.5,2.5v21.8c0,1.4,1.2,2.6,2.6,2.6h17.8
			c1.4,0,2.6-1.2,2.6-2.6L-264,383.7L-264,383.7z M-266.6,403.4c0,1.1-0.9,2-2,2h-13.9c-1.1,0-2-0.9-2-2v-17.8c0-1.1,0.9-2,2-2h13.9
			c1.1,0,2,0.9,2,2L-266.6,403.4L-266.6,403.4z"/>
		<path class="st0" d="M-263,386.1v2.6c0.8,0,1.4,0.6,1.4,1.4V409c0,0.8-0.6,1.4-1.4,1.4h-15.1c-0.8,0-1.4-0.6-1.4-1.4h-2.5v1.3
			c0,1.4,1.2,2.6,2.6,2.6h17.8c1.4,0,2.6-1.2,2.6-2.6v-21.7c0-1.4-1.2-2.6-2.6-2.6H-263z"/>
		<path class="st0" d="M-281.2,389.5h11.5c0.7,0,1.3-0.6,1.3-1.3s-0.6-1.3-1.3-1.3h-11.5c-0.7,0-1.3,0.6-1.3,1.3
			C-282.5,389-281.9,389.5-281.2,389.5z"/>
		<path class="st0" d="M-281.2,393.8h11.5c0.7,0,1.3-0.6,1.3-1.3c0-0.7-0.6-1.3-1.3-1.3h-11.5c-0.7,0-1.3,0.6-1.3,1.3
			C-282.5,393.2-281.9,393.8-281.2,393.8z"/>
		<path class="st0" d="M-281.2,398h11.5c0.7,0,1.3-0.6,1.3-1.3c0-0.7-0.6-1.3-1.3-1.3h-11.5c-0.7,0-1.3,0.6-1.3,1.3
			C-282.5,397.5-281.9,398-281.2,398z"/>
		<path class="st0" d="M-281.2,402.1h11.5c0.7,0,1.3-0.6,1.3-1.3c0-0.7-0.6-1.3-1.3-1.3h-11.5c-0.7,0-1.3,0.6-1.3,1.3
			C-282.5,401.6-281.9,402.1-281.2,402.1z"/>
	</g>
</g>
</svg>
