<?xml version="1.0" encoding="utf-8"?>
<!-- Generator: Adobe Illustrator 19.1.0, SVG Export Plug-In . SVG Version: 6.00 Build 0)  -->
<svg version="1.1" id="Capa_1" xmlns="http://www.w3.org/2000/svg" xmlns:xlink="http://www.w3.org/1999/xlink" x="0px" y="0px"
	 viewBox="-96 187 419 419" style="enable-background:new -96 187 419 419;" xml:space="preserve">
<style type="text/css">
	.st0{fill:#FFFFFF;}
</style>
<g>
	<g>
		<path class="st0" d="M268.9,293.8l-102.6-103c-4-4-7.9-3.7-7.9-3.7H-6.3c-21.8,0-39.5,17.7-39.5,39.5v340
			c0,21.8,17.7,39.5,39.5,39.5h239.5c21.8,0,39.5-17.7,39.5-39.5c0,0,0-259,0-262.9S271.6,296.4,268.9,293.8z M170.2,231.4
			l58.3,58.6h-48.9c-5.2,0-9.4-4.2-9.4-9.4L170.2,231.4L170.2,231.4z M243.7,566.5c0,5.8-4.7,10.5-10.5,10.5H-6.3
			c-5.8,0-10.5-4.7-10.5-10.5v-340c0-5.8,4.7-10.5,10.5-10.5h150.4v64.5c0,19.5,15.9,35.4,35.4,35.4h64.2V566.5L243.7,566.5z"/>
		<path class="st0" d="M17.3,429.2c0,5.5,4.5,10,10,10h172.3c5.5,0,10-4.5,10-10c0-5.5-4.5-10-10-10H27.3
			C21.8,419.2,17.3,423.7,17.3,429.2z"/>
		<path class="st0" d="M199.7,469.2H27.3c-5.5,0-10,4.5-10,10c0,5.5,4.5,10,10,10h172.3c5.5,0,10-4.5,10-10
			C209.7,473.7,205.2,469.2,199.7,469.2z"/>
		<path class="st0" d="M199.7,519.2H27.3c-5.5,0-10,4.5-10,10c0,5.5,4.5,10,10,10h172.3c5.5,0,10-4.5,10-10
			C209.7,523.7,205.2,519.2,199.7,519.2z"/>
		<path class="st0" d="M23.6,389.2h117c10.9,0-9.2-47.9-9.2-47.9c-1.2-2.9-4-4.5-6.8-5.8l-18.5-8.5l-8.9-7.5l-14.1,14l6.3,42.1
			c0,0.1,0,0.3-0.1,0.4l-6.7,9.2c-0.1,0.1-0.3,0.2-0.5,0.2c-0.2,0-0.4-0.1-0.5-0.2l-6.7-9.2c-0.1-0.1-0.1-0.3-0.1-0.4l6.3-42.1
			l-14.1-14l-8.9,7.5l-18.5,8.5c-2.7,1.1-5.3,2.5-6.8,5.8C32.8,341.3,12.7,389.2,23.6,389.2z"/>
		<path class="st0" d="M82.1,319.2c18.9,0,33.1-17.6,33.4-47.2c0.2-20.5-9.6-32.8-33.4-32.8c-23.8,0-33.6,12.3-33.4,32.8
			C49,301.5,63.2,319.2,82.1,319.2z"/>
	</g>
</g>
</svg>
