<?xml version="1.0" encoding="utf-8"?>
<!-- Generator: Adobe Illustrator 19.2.1, SVG Export Plug-In . SVG Version: 6.00 Build 0)  -->
<svg version="1.1" id="Capa_1" xmlns="http://www.w3.org/2000/svg" xmlns:xlink="http://www.w3.org/1999/xlink" x="0px" y="0px"
	 viewBox="0 0 495.8 495.8" style="enable-background:new 0 0 495.8 495.8;" xml:space="preserve">
<g>
	<g id="Layer_1_22_">
		<g>
			<path d="M118.1,373.5V95.7h224.3V329l42.7-35.3V74.4c0-11.8-9.6-21.4-21.4-21.4H96.7c-11.8,0-21.4,9.6-21.4,21.4v320.5
				c0,11.8,9.6,21.4,21.4,21.4h186.4L253,373.5H118.1z"/>
			<path d="M446.7,282.7c-3.9-3.7-10-3.9-14.1-0.5l-98,81L269.3,324c-4.3-2.6-9.9-1.8-13.3,1.9c-3.4,3.7-3.8,9.3-0.9,13.4
				l70.8,100.2c2,2.8,5.2,4.5,8.6,4.5c0,0,0.1,0,0.1,0c3.4,0,6.6-1.6,8.6-4.4L448,296.8C451.1,292.5,450.6,286.4,446.7,282.7z"/>
			<path d="M294.4,127.8H166.2c-11.8,0-21.4,9.6-21.4,21.4s9.6,21.4,21.4,21.4h128.2c11.8,0,21.3-9.6,21.3-21.4
				S306.2,127.8,294.4,127.8z"/>
			<path d="M294.4,191.9H166.2c-11.8,0-21.4,9.6-21.4,21.4c0,11.8,9.6,21.4,21.4,21.4h128.2c11.8,0,21.3-9.6,21.3-21.4
				C315.7,201.4,306.2,191.9,294.4,191.9z"/>
			<path d="M294.4,256H166.2c-11.8,0-21.4,9.6-21.4,21.4s9.6,21.4,21.4,21.4h128.2c11.8,0,21.3-9.6,21.3-21.4
				C315.7,265.5,306.2,256,294.4,256z"/>
		</g>
	</g>
</g>
</svg>
