<?xml version="1.0" encoding="utf-8"?>
<!-- Generator: Adobe Illustrator 19.2.1, SVG Export Plug-In . SVG Version: 6.00 Build 0)  -->
<svg version="1.1" id="Capa_1" xmlns="http://www.w3.org/2000/svg" xmlns:xlink="http://www.w3.org/1999/xlink" x="0px" y="0px"
	 viewBox="0 0 495.8 495.8" style="enable-background:new 0 0 495.8 495.8;" xml:space="preserve">
<g>
	<g>
		<path d="M424.7,60.7L424.7,60.7C424.7,60.7,423.6,60.7,424.7,60.7c-3.3-5.5-8.8-7.7-14.3-7.7l0,0H113.5l0,0
			c-9.9,0-17.7,7.7-17.7,17.7l0,0v15.5v57.4v32v57.4v32v57.4v32v57.4V427l0,0c0,3.3,1.1,6.6,3.3,9.9l0,0l0,0
			c3.3,4.4,8.8,7.7,14.3,7.7l0,0h296.8l0,0c9.9,0,17.7-7.7,17.7-17.7l0,0v-15.5v-57.4v-32v-57.4v-32v-57.4v-32V86.1V70.7l0,0
			C426.9,66.2,425.8,64,424.7,60.7z M208.4,389.5c0,4.4-3.3,7.7-7.7,7.7h-40.8c-4.4,0-7.7-3.3-7.7-7.7v-17.7c0-4.4,3.3-7.7,7.7-7.7
			h40.8c4.4,0,7.7,3.3,7.7,7.7C208.4,371.9,208.4,389.5,208.4,389.5z M208.4,329.9c0,4.4-3.3,7.7-7.7,7.7h-40.8
			c-4.4,0-7.7-3.3-7.7-7.7v-17.7c0-4.4,3.3-7.7,7.7-7.7h40.8c4.4,0,7.7,3.3,7.7,7.7C208.4,312.3,208.4,329.9,208.4,329.9z
			 M208.4,271.5c0,4.4-3.3,7.7-7.7,7.7h-40.8c-4.4,0-7.7-3.3-7.7-7.7v-17.7c0-4.4,3.3-7.7,7.7-7.7h40.8c4.4,0,7.7,3.3,7.7,7.7
			C208.4,253.8,208.4,271.5,208.4,271.5z M289,389.5c0,4.4-3.3,7.7-7.7,7.7h-40.8c-4.4,0-7.7-3.3-7.7-7.7v-17.7
			c0-4.4,3.3-7.7,7.7-7.7h40.8c4.4,0,7.7,3.3,7.7,7.7V389.5z M289,329.9c0,4.4-3.3,7.7-7.7,7.7h-40.8c-4.4,0-7.7-3.3-7.7-7.7v-17.7
			c0-4.4,3.3-7.7,7.7-7.7h40.8c4.4,0,7.7,3.3,7.7,7.7V329.9z M289,271.5c0,4.4-3.3,7.7-7.7,7.7h-40.8c-4.4,0-7.7-3.3-7.7-7.7v-17.7
			c0-4.4,3.3-7.7,7.7-7.7h40.8c4.4,0,7.7,3.3,7.7,7.7V271.5z M370.6,389.5c0,4.4-3.3,7.7-7.7,7.7h-40.8c-4.4,0-7.7-3.3-7.7-7.7
			v-17.7c0-4.4,3.3-7.7,7.7-7.7h40.8c4.4,0,7.7,3.3,7.7,7.7V389.5z M370.6,329.9c0,4.4-3.3,7.7-7.7,7.7h-40.8
			c-4.4,0-7.7-3.3-7.7-7.7v-17.7c0-4.4,3.3-7.7,7.7-7.7h40.8c4.4,0,7.7,3.3,7.7,7.7V329.9z M370.6,271.5c0,4.4-3.3,7.7-7.7,7.7
			h-40.8c-4.4,0-7.7-3.3-7.7-7.7v-17.7c0-4.4,3.3-7.7,7.7-7.7h40.8c4.4,0,7.7,3.3,7.7,7.7V271.5z M373.9,209.7L373.9,209.7
			c0,4.4-3.3,7.7-7.7,7.7H155.5c-4.4,0-7.7-3.3-7.7-7.7V107.1c0-4.4,3.3-7.7,7.7-7.7h210.7c4.4,0,7.7,3.3,7.7,7.7
			C373.9,107.1,373.9,209.7,373.9,209.7z"/>
		<path d="M206.2,150.1c-7.7-3.3-11-4.4-11-7.7c0-2.2,2.2-4.4,7.7-4.4c6.6,0,9.9,2.2,12.1,3.3l2.2-9.9c-3.3-1.1-6.6-2.2-12.1-3.3
			v-7.7h-8.8v8.8c-8.8,2.2-14.3,7.7-14.3,15.4c0,8.8,6.6,13.2,15.4,15.5c6.6,2.2,8.8,4.4,8.8,7.7s-3.3,5.5-8.8,5.5
			c-5.5,0-11-2.2-14.3-3.3l-2.2,9.9c3.3,2.2,8.8,3.3,14.3,3.3v8.8h8.8v-9.9c9.9-2.2,15.4-8.8,15.4-16.5
			C220.6,158.9,216.2,153.4,206.2,150.1z"/>
		<path d="M265.8,150.1c-7.7-3.3-11-4.4-11-7.7c0-2.2,2.2-4.4,7.7-4.4c6.6,0,9.9,2.2,12.1,3.3l2.2-9.9c-3.3-1.1-6.6-2.2-12.1-3.3
			v-7.7h-8.8v8.8c-8.8,2.2-14.3,7.7-14.3,15.4c0,8.8,6.6,13.2,15.5,15.5c6.6,2.2,8.8,4.4,8.8,7.7s-3.3,5.5-8.8,5.5
			c-5.5,0-11-2.2-14.3-3.3l-2.2,9.9c3.3,2.2,8.8,3.3,14.3,3.3v8.8h8.8v-9.9c9.9-2.2,15.5-8.8,15.5-16.5
			C281.3,158.9,276.8,153.4,265.8,150.1z"/>
		<path d="M326.5,150.1c-7.7-3.3-11-4.4-11-7.7c0-2.2,2.2-4.4,7.7-4.4c6.6,0,9.9,2.2,12.1,3.3l2.2-9.9c-3.3-1.1-6.6-2.2-12.1-3.3
			v-7.7h-8.8v8.8c-8.8,2.2-14.3,7.7-14.3,15.4c0,8.8,6.6,13.2,15.4,15.5c6.6,2.2,8.8,4.4,8.8,7.7s-3.3,5.5-8.8,5.5
			c-5.5,0-11-2.2-14.3-3.3l-2.2,9.9c3.3,2.2,8.8,3.3,14.3,3.3v8.8h8.8v-9.9c9.9-2.2,15.5-8.8,15.5-16.5
			C340.8,158.9,336.4,153.4,326.5,150.1z"/>
	</g>
</g>
</svg>
