<?xml version="1.0" encoding="utf-8"?>
<!-- Generator: Adobe Illustrator 19.2.1, SVG Export Plug-In . SVG Version: 6.00 Build 0)  -->
<svg version="1.1" id="Capa_1" xmlns="http://www.w3.org/2000/svg" xmlns:xlink="http://www.w3.org/1999/xlink" x="0px" y="0px"
	 viewBox="0 0 495.8 495.8" style="enable-background:new 0 0 495.8 495.8;" xml:space="preserve">
<style type="text/css">
	.st0{fill:#0F0F0F;}
</style>
<path class="st0" d="M379.1,98.9h22.8c9,0,16.3-7.3,16.3-16.3V70c0-9.1-7.3-16.3-16.3-16.3H87.3C78.3,53.7,71,60.9,71,70v12.6
	c0,9,7.3,16.3,16.3,16.3h22.7c1.7,60.5,25.9,115.8,63.2,147.4c-38.2,32.4-62.5,89.4-63.2,151.9H87.3c-9.1,0-16.3,7.3-16.3,16.3v12
	c0,8.9,7.3,16.3,16.3,16.3h314.6c9,0,16.3-7.3,16.3-16.3v-12c0-9-7.3-16.3-16.3-16.3h-22.7c-0.7-62.5-25.1-119.6-63.2-151.9
	C353.2,214.7,377.4,159.5,379.1,98.9L379.1,98.9z M273.1,260l6.1,3.1c41.4,20.3,69.3,73.9,70.1,135.2H140
	c0.7-61.2,28.7-114.9,70.1-135.2l6.1-3c5.3-2.6,8.6-8,8.6-13.9c0-5.9-3.3-11.3-8.6-13.9l-6.1-2.9c-40.4-19.7-68-71.9-70-130.4h209.2
	c-2,58.5-29.7,110.7-70.1,130.4l-6.1,3c-5.3,2.6-8.6,7.9-8.6,13.8C264.4,252.1,267.8,257.4,273.1,260L273.1,260z M273.1,260"/>
</svg>
