<?xml version="1.0" encoding="utf-8"?>
<!-- Generator: Adobe Illustrator 19.2.1, SVG Export Plug-In . SVG Version: 6.00 Build 0)  -->
<svg version="1.1" id="Capa_1" xmlns="http://www.w3.org/2000/svg" xmlns:xlink="http://www.w3.org/1999/xlink" x="0px" y="0px"
	 viewBox="0 0 198.5 198.5" style="enable-background:new 0 0 198.5 198.5;" xml:space="preserve">
<style type="text/css">
	.st0{fill:#FDCC9B;}
	.st1{fill:#FCBC85;}
	.st2{fill:#3B2519;}
	.st3{fill:#FFFFFF;}
	.st4{fill:#51362A;}
	.st5{fill:#F7945E;}
	.st6{fill:#F7941E;}
	.st7{fill:#F36C21;}
</style>
<g>
	<g>
		<rect x="84.6" y="148.2" class="st0" width="29.4" height="32.9"/>
		<path class="st1" d="M84.6,152.1c0,0,12.4,7.9,29.4,6.1v-9.9H84.6V152.1z"/>
		<ellipse class="st1" cx="42.2" cy="97.2" rx="14.3" ry="16.4"/>
		<ellipse class="st1" cx="156.3" cy="97.2" rx="14.3" ry="16.4"/>
		<path class="st0" d="M156.3,65.9c0-24.1-17.6-41.7-57-41.7s-57,17.6-57,41.7s-4.1,87.6,57,87.6S156.3,90,156.3,65.9z"/>
		<g>
			<g>
				<ellipse class="st2" cx="71.5" cy="93.3" rx="6.2" ry="6.8"/>
				<ellipse class="st3" cx="75" cy="95.3" rx="2.2" ry="2.2"/>
			</g>
			<path class="st4" d="M59.3,83.6c3.1,1.1,12.1-9.4,22.6,1.1c2.1,0.7-1.7-10.9-13.1-9.3C58.9,76.8,57.4,83,59.3,83.6z"/>
			<g>
				<ellipse class="st2" cx="127.8" cy="93.3" rx="6.2" ry="6.8"/>
			</g>
		</g>
		<path class="st1" d="M100.9,118.2c-6.9,0-11.3-4.3-11.3-2.7c0,1.6,2,4.7,11,4.7s11-3.1,11-4.7
			C111.8,113.9,107.8,118.2,100.9,118.2z"/>
		<path class="st1" d="M99.6,137.8c-2.3,0-3.7-1.5-3.7-0.8s0.7,2.2,3.7,2.2s3.7-1.4,3.7-2.2C103.3,136.3,101.9,137.8,99.6,137.8z"/>
		<path class="st5" d="M99.8,126.9c9,0,13,3.9,13,2.7c0-1.3-0.5-4.5-12.3-4.5s-12.3,3.6-12.3,4.8C88.1,131.1,90.8,126.9,99.8,126.9z
			"/>
	</g>
	<path class="st6" d="M99.2,161.5v37H27.8C27.8,183.5,65.4,161.5,99.2,161.5z"/>
	<path class="st6" d="M99.2,161.5v37h71.4C170.7,183.5,133.1,161.5,99.2,161.5z"/>
	<path class="st7" d="M99.2,161.5c-7.2,0-14.6,1-21.7,2.7c0,0.1,7.9,10.2,21.7,10.2c12.8,0,21.2-8.7,22.5-10
		C114.3,162.5,106.7,161.5,99.2,161.5z"/>
	<path class="st0" d="M84.6,162.7c0,0,4.3,5.3,14.7,5.3s14.7-5.3,14.7-5.3S98.7,157.2,84.6,162.7z"/>
	<path class="st4" d="M146.1,19c0,0-21.2-26.9-65.2-16.8C37,12.4,33.7,38.9,35,64.6s4.8,40.8,9,39c4.2-1.9,2-18.9,2.4-22.8
		s4.4-21.7,31.2-19c26.8,2.6,49.3-7.1,49.3-7.1s9.1,11.5,15,13.7c11.9,4.4,8,33.7,12.7,33.7S182.3,34.5,146.1,19z"/>
</g>
<ellipse class="st3" cx="124.8" cy="96" rx="2.2" ry="2.2"/>
<path class="st4" d="M130.3,75.6c-11.4-1.6-15.2,10-13.1,9.3c10.5-10.5,19.5,0,22.6-1.1C141.8,83.1,140.3,77,130.3,75.6z"/>
</svg>
