<?xml version="1.0" encoding="utf-8"?>
<!-- Generator: Adobe Illustrator 19.2.1, SVG Export Plug-In . SVG Version: 6.00 Build 0)  -->
<svg version="1.1" id="Capa_1" xmlns="http://www.w3.org/2000/svg" xmlns:xlink="http://www.w3.org/1999/xlink" x="0px" y="0px"
	 viewBox="0 0 198.5 198.5" style="enable-background:new 0 0 198.5 198.5;" xml:space="preserve">
<style type="text/css">
	.st0{fill:#FDCC9B;}
	.st1{fill:#FCBC85;}
	.st2{fill:#3B2519;}
	.st3{fill:#FFFFFF;}
	.st4{fill:#51362A;}
	.st5{fill:#F7945E;}
	.st6{fill:#F7941E;}
	.st7{fill:#F36C21;}
	.st8{fill:#A05A0E;}
</style>
<g>
	<g>
		<rect x="84.6" y="148.2" class="st0" width="29.4" height="32.9"/>
		<path class="st1" d="M84.6,152.1c0,0,12.4,7.9,29.4,6.1v-9.9H84.6V152.1z"/>
		<ellipse class="st1" cx="42.2" cy="97.2" rx="14.3" ry="16.4"/>
		<ellipse class="st1" cx="156.3" cy="97.2" rx="14.3" ry="16.4"/>
		<path class="st0" d="M156.3,65.9c0-24.1-17.6-41.7-57-41.7s-57,17.6-57,41.7s-4.1,87.6,57,87.6S156.3,90,156.3,65.9z"/>
		<g>
			<g>
				<ellipse class="st2" cx="71.5" cy="93.3" rx="6.2" ry="6.8"/>
				<circle class="st3" cx="73.8" cy="89.3" r="1.8"/>
			</g>
			<g>
				<ellipse class="st2" cx="127.8" cy="93.3" rx="6.2" ry="6.8"/>
				<circle class="st3" cx="130.1" cy="89.3" r="1.8"/>
			</g>
			<path class="st4" d="M141.6,83.5c-0.2,0-0.3,0.1-0.5,0.2c-3.2,2-13.1-8.9-25,0.5c-2.5,1.2-2.8-8.8,11.8-8.8
				C139.9,75.4,144.5,82.7,141.6,83.5z"/>
		</g>
		<path class="st1" d="M99.4,116.4c-7.6,0-12.1-5.3-12.1-2.7c0,2.6,2.5,5.9,12.4,5.9s11.8-3.3,11.8-5.9
			C111.5,111.1,107,116.4,99.4,116.4z"/>
		<path class="st1" d="M99.7,138.1c-3.6,0-5.8-1.8-5.8-1s1.1,2.6,5.8,2.6s5.8-1.7,5.8-2.6C105.6,136.3,103.3,138.1,99.7,138.1z"/>
		<path class="st5" d="M99.1,129.9c-15,0-19.9-5.7-19.9-4.4c0,1.3,0.3,6.5,20,6.5s22.2-4.4,22.2-5.7
			C121.4,125.2,114.2,129.9,99.1,129.9z"/>
	</g>
	<path class="st6" d="M99.2,161.5v37H27.8C27.8,183.5,65.4,161.5,99.2,161.5z"/>
	<path class="st6" d="M99.2,161.5v37h71.4C170.7,183.5,133.1,161.5,99.2,161.5z"/>
	<path class="st7" d="M99.2,161.5c-7.2,0-14.6,1-21.7,2.7c0,0.1,7.9,10.2,21.7,10.2c12.8,0,21.2-8.7,22.5-10
		C114.3,162.5,106.7,161.5,99.2,161.5z"/>
	<path class="st0" d="M84.6,162.7c0,0,4.3,5.3,14.7,5.3s14.7-5.3,14.7-5.3S98.7,157.2,84.6,162.7z"/>
	<path class="st4" d="M146.1,19c0,0-21.2-26.9-65.2-16.8C37,12.4,33.7,38.9,35,64.6s4.8,40.8,9,39c4.2-1.9,2-18.9,2.4-22.8
		s4.4-21.7,31.2-19c26.8,2.6,49.3-7.1,49.3-7.1s9.1,11.5,15,13.7c11.9,4.4,8,33.7,12.7,33.7S182.3,34.5,146.1,19z"/>
</g>
<path class="st4" d="M83.6,81.4c-0.2,0-0.3,0.1-0.5,0.2c-3.2,2-18.6-12.3-25,0.5c-2.5,1.2-1.9-14.9,11.8-9.8
	C82.5,77.1,86.6,80.6,83.6,81.4z"/>
<g>
	<g>
		<path class="st8" d="M195.8,13c0.6-0.9,1-1.9,1-3c0-3.7-4.1-6.6-9.2-6.6c-1.2,0-2.4,0.2-3.5,0.5c-1.6-1.8-4.4-2.9-7.6-2.9
			c-4.4,0-8.1,2.2-9,5.2c-4.9,0.1-8.9,3-8.9,6.6c0,3.7,4.1,6.6,9.2,6.6c0.1,0,0.2,0,0.4,0c1.5,2.3,4.6,3.9,8.3,3.9
			c2.4,0,4.5-0.7,6.2-1.7c1.4,0.7,3.1,1.1,4.9,1.1c5.1,0,9.2-3,9.2-6.6C196.8,14.9,196.5,13.9,195.8,13z M170.7,23.8
			c-2,0-3.6,1.2-3.6,2.6c0,1.4,1.6,2.6,3.6,2.6c2,0,3.6-1.2,3.6-2.6C174.4,25,172.7,23.8,170.7,23.8z M164.5,28.5
			c-1.6,0-2.9,0.9-3,2c-0.1,1.2,1.2,2.1,2.8,2.2c1.6,0,2.9-0.9,3-2C167.4,29.5,166.2,28.6,164.5,28.5z"/>
	</g>
</g>
</svg>
