<?xml version="1.0" encoding="utf-8"?>
<!-- Generator: Adobe Illustrator 19.1.0, SVG Export Plug-In . SVG Version: 6.00 Build 0)  -->
<svg version="1.1" id="Capa_1" xmlns="http://www.w3.org/2000/svg" xmlns:xlink="http://www.w3.org/1999/xlink" x="0px" y="0px"
	 viewBox="-289 381.3 31.7 31.7" style="enable-background:new -289 381.3 31.7 31.7;" xml:space="preserve">
<style type="text/css">
	.st0{fill:#FFFFFF;}
</style>
<g>
	<g>
		<path class="st0" d="M-286.1,409.3v-19.1h7.1v-7.1h13.4v15.4c0.2,0,0.4,0,0.7,0c0.4,0,0.8,0,1.2,0.1v-17.3h-16.4l-7.7,8.2v21.7h17
			c-0.5-0.6-0.8-1.2-1.1-1.9L-286.1,409.3L-286.1,409.3z M-280.9,384.7v3.6h-3.4L-280.9,384.7z"/>
		<rect x="-283.9" y="395.4" class="st0" width="15.8" height="2.1"/>
		<path class="st0" d="M-269,399.6h-14.9v2.1h12.6C-270.7,400.9-269.9,400.1-269,399.6z"/>
		<path class="st0" d="M-283.9,406h11.1c0-0.7,0.1-1.4,0.3-2.1h-11.5V406z"/>
		<path class="st0" d="M-265,399.5c-3.7,0-6.7,3-6.7,6.7s3,6.7,6.7,6.7s6.7-3,6.7-6.7S-261.3,399.5-265,399.5z M-261.8,407.3h-2.2
			v2.2h-2v-2.2h-2.2v-2h2.2V403h2v2.2h2.2V407.3z"/>
	</g>
</g>
</svg>
