<?xml version="1.0" encoding="utf-8"?>
<!-- Generator: Adobe Illustrator 19.1.0, SVG Export Plug-In . SVG Version: 6.00 Build 0)  -->
<svg version="1.1" id="Capa_1" xmlns="http://www.w3.org/2000/svg" xmlns:xlink="http://www.w3.org/1999/xlink" x="0px" y="0px"
	 viewBox="-84 176 442 442" style="enable-background:new -84 176 442 442;" xml:space="preserve">
<style type="text/css">
	.st0{fill:#FFFFFF;}
</style>
<g>
	<path class="st0" d="M253.9,365.5c0-0.1,0-0.2,0-0.2c-0.1-0.4-0.1-0.8-0.2-1.2c0,0,0,0,0,0c-0.1-0.4-0.2-0.7-0.4-1.1
		c0-0.1-0.1-0.2-0.1-0.3c-0.1-0.3-0.2-0.5-0.4-0.8c-0.1-0.1-0.1-0.2-0.2-0.3c0-0.1-0.1-0.1-0.1-0.2c-0.1-0.2-0.3-0.5-0.5-0.7
		c0,0-0.1-0.1-0.1-0.1c-0.2-0.3-0.5-0.6-0.8-0.9c-0.1-0.1-0.1-0.1-0.2-0.2c-0.2-0.2-0.5-0.5-0.8-0.7c-0.1-0.1-0.1-0.1-0.2-0.2
		c-0.4-0.3-0.7-0.5-1.1-0.7l-147.3-83.7l84.8-53.4l142.2,80.8l-59.9,37.7c-4.7,2.9-6.1,9.1-3.1,13.8c2.9,4.7,9.1,6.1,13.8,3.1
		l74-46.6c3-1.9,4.7-5.2,4.7-8.7c-0.1-3.5-2-6.7-5.1-8.5l-161.9-92c-3.2-1.8-7.1-1.7-10.3,0.2l-104,65.5c0,0,0,0-0.1,0l-51.9,32.7
		c0,0,0,0-0.1,0l-104,65.5c-3,1.9-4.7,5.2-4.7,8.7c0.1,3.5,2,6.7,5.1,8.5l161.9,92c1.5,0.9,3.2,1.3,4.9,1.3c1.9,0,3.7-0.5,5.3-1.5
		l74-46.6c4.7-2.9,6.1-9.1,3.1-13.8c-2.9-4.7-9.1-6.1-13.8-3.1l-69,43.4l-142.2-80.8L30.3,319L182,405.2v114.2c0,3.6,2,7,5.2,8.8
		c1.5,0.8,3.2,1.2,4.8,1.2c1.9,0,3.7-0.5,5.3-1.5l52-32.8c2.9-1.8,4.7-5,4.7-8.5v-120c0-0.1,0-0.1,0-0.2
		C254,366.1,253.9,365.8,253.9,365.5z M202,501.3V399.4c0-3.6-1.9-6.9-5.1-8.7L49.5,306.9l32.8-20.7l142.2,80.8l-12.5,7.8
		c-4.7,2.9-6.1,9.1-3.1,13.8c1.9,3,5.1,4.7,8.5,4.7c1.8,0,3.7-0.5,5.3-1.5l11.3-7.1v96.4L202,501.3z"/>
	<path class="st0" d="M342.7,332.7l-74,46.6c-4.7,2.9-6.1,9.1-3.1,13.8c1.9,3,5.1,4.7,8.5,4.7c1.8,0,3.7-0.5,5.3-1.5l74-46.6
		c4.7-2.9,6.1-9.1,3.1-13.8C353.5,331.1,347.3,329.7,342.7,332.7z"/>
	<path class="st0" d="M156.6,449.8l-69,43.4l-156.7-89.1c-4.8-2.7-10.9-1.1-13.6,3.8c-2.7,4.8-1,10.9,3.8,13.6l161.9,92
		c1.5,0.9,3.2,1.3,4.9,1.3c1.9,0,3.7-0.5,5.3-1.5l74-46.6c4.7-2.9,6.1-9.1,3.1-13.8C167.5,448.3,161.3,446.9,156.6,449.8z"/>
	<path class="st0" d="M342.7,372.7l-74,46.6c-4.7,2.9-6.1,9.1-3.1,13.8c1.9,3,5.1,4.7,8.5,4.7c1.8,0,3.7-0.5,5.3-1.5l74-46.6
		c4.7-2.9,6.1-9.1,3.1-13.8C353.5,371.1,347.3,369.7,342.7,372.7z"/>
	<path class="st0" d="M156.6,489.8l-69,43.4l-156.7-89.1c-4.8-2.7-10.9-1.1-13.6,3.8c-2.7,4.8-1,10.9,3.8,13.6l161.9,92
		c1.5,0.9,3.2,1.3,4.9,1.3c1.9,0,3.7-0.5,5.3-1.5l74-46.6c4.7-2.9,6.1-9.1,3.1-13.8C167.5,488.3,161.3,486.9,156.6,489.8z"/>
	<path class="st0" d="M342.7,412.7l-74,46.6c-4.7,2.9-6.1,9.1-3.1,13.8c1.9,3,5.1,4.7,8.5,4.7c1.8,0,3.7-0.5,5.3-1.5l74-46.6
		c4.7-2.9,6.1-9.1,3.1-13.8C353.5,411.1,347.3,409.7,342.7,412.7z"/>
	<path class="st0" d="M156.6,529.8l-69,43.4l-156.7-89.1c-4.8-2.7-10.9-1.1-13.6,3.8c-2.7,4.8-1,10.9,3.8,13.6l161.9,92
		c1.5,0.9,3.2,1.3,4.9,1.3c1.9,0,3.7-0.5,5.3-1.5l74-46.6c4.7-2.9,6.1-9.1,3.1-13.8C167.5,528.3,161.3,526.9,156.6,529.8z"/>
</g>
</svg>
