<?xml version="1.0" encoding="utf-8"?>
<!-- Generator: Adobe Illustrator 19.1.0, SVG Export Plug-In . SVG Version: 6.00 Build 0)  -->
<svg version="1.1" id="Capa_1" xmlns="http://www.w3.org/2000/svg" xmlns:xlink="http://www.w3.org/1999/xlink" x="0px" y="0px"
	 viewBox="-177 268.4 256.6 256.6" style="enable-background:new -177 268.4 256.6 256.6;" xml:space="preserve">
<style type="text/css">
	.st0{fill:#FFFFFF;}
</style>
<g>
	<g id="_x38_7_36_">
		<g>
			<path class="st0" d="M-116.1,380.9c-6.9,0-6.9,10.6,0,10.6c27.3,0,54.6,0,81.9,0c6.9,0,6.9-10.6,0-10.6
				C-61.6,380.9-88.8,380.9-116.1,380.9z"/>
			<path class="st0" d="M-34.3,406.1c-27.3,0-54.6,0-81.9,0c-6.9,0-6.9,10.6,0,10.6c27.3,0,54.6,0,81.9,0
				C-27.4,416.7-27.4,406.1-34.3,406.1z"/>
			<path class="st0" d="M-34.3,429.4c-27.3,0-54.6,0-81.9,0c-6.9,0-6.9,10.6,0,10.6c27.3,0,54.6,0,81.9,0
				C-27.4,440-27.4,429.4-34.3,429.4z"/>
			<path class="st0" d="M-34.3,454.6c-27.3,0-54.6,0-81.9,0c-6.9,0-6.9,10.6,0,10.6c27.3,0,54.6,0,81.9,0
				C-27.4,465.2-27.4,454.6-34.3,454.6z"/>
			<path class="st0" d="M-35.8,478.3c-27.3,0-54.6,0-81.9,0c-6.8,0-6.8,10.6,0,10.6c27.3,0,54.6,0,81.9,0
				C-29,489-29,478.3-35.8,478.3z"/>
			<path class="st0" d="M-151.6,326.5V525H1.2V354l-28.4-27.5C-27.2,326.5-151.6,326.5-151.6,326.5z M-12,511.8h-126.4V339.7H-34v21
				h22L-12,511.8L-12,511.8z"/>
			<polygon class="st0" points="-125.8,296.1 -125.8,319 -112.6,319 -112.6,309.3 -8.1,309.3 -8.1,330.2 13.9,330.2 13.9,481.4 
				8.1,481.4 8.1,494.6 27.1,494.6 27.1,323.6 -1.3,296.1 			"/>
			<polygon class="st0" points="25.8,268.4 -98.6,268.4 -98.6,291.4 -85.4,291.4 -85.4,281.6 19,281.6 19,302.6 41,302.6 41,453.7 
				35.2,453.7 35.2,466.9 54.2,466.9 54.2,295.9 			"/>
		</g>
	</g>
</g>
</svg>
