<?xml version="1.0" encoding="utf-8"?>
<!-- Generator: Adobe Illustrator 19.1.0, SVG Export Plug-In . SVG Version: 6.00 Build 0)  -->
<svg version="1.1" id="Capa_1" xmlns="http://www.w3.org/2000/svg" xmlns:xlink="http://www.w3.org/1999/xlink" x="0px" y="0px"
	 viewBox="-58 149.4 494.6 494.6" style="enable-background:new -58 149.4 494.6 494.6;" xml:space="preserve">
<style type="text/css">
	.st0{fill:#FFFFFF;}
</style>
<g>
	<g>
		<path class="st0" d="M434,228.6c-2.8-4.6-7.4-7.9-12.6-9l-280.2-67.5c-9.2-1.8-18.3,3.3-21.5,12.1L12.8,435.5l35.7,13l101.2-258
			l243.4,62.1c-15.2,47.1-51.4,145.5-86.1,237.1c-30.2,79.9-47.6,107.3-80.7,112.9c0,0-0.1-0.1-0.1-0.1
			c-67.6,9.5-66.4-76.7-66.4-76.7l-215.9-87.2C-71.3,535.9,3.4,559.2,3.4,559.2l158,71.8c0,0,24.7,11.8,51.5,10.6
			c72.3-1.7,97.7-54.2,129.6-138.4c46-121.6,92.7-257.8,93.2-259.3C437.4,238.8,436.7,233.2,434,228.6z"/>
		<path class="st0" d="M306.3,338c1.6,0.5,3.4,0.7,5,0.7c8.3,0,15.9-5.6,18.3-14c2.8-10.1-3.2-20.6-13.3-23.3L234,276
			c-10-2.8-20.6,3.2-23.3,13.3c-2.8,10.1,3.2,20.6,13.3,23.3L306.3,338z"/>
		<path class="st0" d="M177.8,365.3c-3.3,10,2.1,20.7,12,24l81.8,29.2c2,0.7,3.9,1,5.9,1c8,0,15.5-5,18.1-13c3.3-9.9-2-20.7-12-24
			l-81.8-29.2C191.8,350,181.1,355.4,177.8,365.3z"/>
		<path class="st0" d="M170.6,432.5c-10-3.3-20.7,2.1-24,12.1c-3.3,9.9,2.2,20.7,12.1,23.9l82,29.1c2,0.7,3.9,1,5.9,1
			c8,0,15.4-5.1,18-13c3.3-10-2.2-20.7-12.1-24L170.6,432.5z"/>
		<path class="st0" d="M167.6,253.9c11.6,0,21,9.2,21,20.5c0,11.3-9.4,20.5-21,20.5c-11.6,0-21.1-9.2-21.1-20.5
			C146.5,263,155.9,253.9,167.6,253.9z"/>
		<path class="st0" d="M137.8,329.9c11.6,0,21,9.2,21,20.4c0,11.3-9.4,20.4-21,20.4c-11.6,0-21.1-9.2-21.1-20.4
			C116.7,339.1,126.2,329.9,137.8,329.9z"/>
		<path class="st0" d="M106,408.4c11.6,0,21.1,9.2,21.1,20.5c0,11.3-9.4,20.4-21.1,20.4c-11.6,0-21.1-9.1-21.1-20.4
			C85,417.6,94.4,408.4,106,408.4z"/>
	</g>
</g>
</svg>
