<?xml version="1.0" encoding="utf-8"?>
<!-- Generator: Adobe Illustrator 19.1.0, SVG Export Plug-In . SVG Version: 6.00 Build 0)  -->
<svg version="1.1" id="Capa_1" xmlns="http://www.w3.org/2000/svg" xmlns:xlink="http://www.w3.org/1999/xlink" x="0px" y="0px"
	 viewBox="-283 374 45 45" style="enable-background:new -283 374 45 45;" xml:space="preserve">
<style type="text/css">
	.st0{fill:#FFFFFF;}
</style>
<g>
	<g>
		<path class="st0" d="M-254.5,391.4c0,0-11.2,0-12,0c0,0,0,0,0,0c-1,0-1.9,0.8-1.8,1.9l0,11.6c0,1,0.8,1.9,1.8,1.9c0,0,0,0,0,0
			c0.6,0,1.1-0.3,1.4-0.7l0.7,11.3c0.1,1,0.9,1.8,1.9,1.8h3.8c1,0,1.8-0.8,1.9-1.8l0.7-11.3c0.3,0.4,0.8,0.7,1.4,0.7c0,0,0,0,0,0
			c1,0,1.8-0.9,1.8-1.9l0-11.5C-252.7,392.3-253.5,391.4-254.5,391.4z"/>
		<circle class="st0" cx="-260.5" cy="385" r="5.1"/>
		<path class="st0" d="M-271.9,383c0,0-8.8,0-9.4,0c0,0,0,0,0,0c-0.8,0-1.5,0.7-1.5,1.5l0,9.1c0,0.8,0.7,1.5,1.4,1.5c0,0,0,0,0,0
			c0.5,0,0.9-0.2,1.1-0.6l0.6,8.8c0.1,0.8,0.7,1.4,1.5,1.4h3c0.8,0,1.4-0.6,1.5-1.4l0.6-8.9c0.3,0.3,0.7,0.6,1.1,0.6c0,0,0,0,0,0
			c0.8,0,1.4-0.7,1.5-1.5l0-9.1C-270.4,383.7-271.1,383-271.9,383z"/>
		<circle class="st0" cx="-276.6" cy="378" r="4"/>
	</g>
	<g>
		<path class="st0" d="M-249.2,383c0,0,8.8,0,9.4,0h0c0.8,0,1.5,0.7,1.5,1.5l0,9.1c0,0.8-0.7,1.5-1.4,1.5c0,0,0,0,0,0
			c-0.5,0-0.9-0.2-1.1-0.6l-0.6,8.8c-0.1,0.8-0.7,1.4-1.5,1.4h-3c-0.8,0-1.4-0.6-1.5-1.4l-0.6-8.9c-0.3,0.3-0.7,0.6-1.1,0.6
			c0,0,0,0,0,0c-0.8,0-1.4-0.7-1.5-1.5l0-9.1C-250.6,383.7-250,383-249.2,383z"/>
		<circle class="st0" cx="-244.4" cy="378" r="4"/>
	</g>
</g>
</svg>
