<?xml version="1.0" encoding="utf-8"?>
<!-- Generator: Adobe Illustrator 19.1.0, SVG Export Plug-In . SVG Version: 6.00 Build 0)  -->
<svg version="1.1" id="Capa_1" xmlns="http://www.w3.org/2000/svg" xmlns:xlink="http://www.w3.org/1999/xlink" x="0px" y="0px"
	 viewBox="-264 356.5 81.5 81.5" style="enable-background:new -264 356.5 81.5 81.5;" xml:space="preserve">
<style type="text/css">
	.st0{fill:#FFFFFF;}
</style>
<g>
	<g>
		<path class="st0" d="M-188.5,398.6v-25.2h-15l-6.4-10.7l-11.7,7l-16.1-9.1l-26.3,46.5l26.5,15v4.7h8.3l0.8,0.4l3.9,6.5l11.6-6.9
			h24.5v-14.6l6-3.6L-188.5,398.6z M-200.9,377.8h8v13.5v4.9v3.7v9.9v0.6v0.5h-0.9h-1h-12.7l1.5-6.9l0,0l0,0l0.1-0.4
			c0.5-1.6-0.4-2.3-0.4-2.3l-2-2l-2-2l4.4-5.1l1,1l1.8,1.8c0,0,1,1,2.2,0c0.1-0.1,0.2-0.1,0.3-0.2l2.8-2.8l1.8-1.8
			c0.2-0.3,0.3-0.6,0.3-1c0-0.7-0.5-1.3-1.1-1.4c-0.1,0-0.3-0.1-0.4-0.1c-0.4,0-0.7,0.1-1,0.4l-1.2,1.2l-2.6,2.6l-1.4-1.4l-3.2-3.2
			c-0.3-0.3-0.8-0.5-1.3-0.5h-7.2c-0.5,0-0.9,0.2-1.1,0.5l-4.9,5.7c-0.3,0.3-0.5,0.7-0.5,1.1c0,0.8,0.7,1.5,1.5,1.5
			c0.5,0,0.9-0.2,1.1-0.5l4.6-5.3l2.6,0l-10.1,11.7l-6.8,0c-0.2,0-0.3,0-0.5,0.1c-1,0.2-1.7,1.2-1.4,2.3c0.2,0.9,1,1.5,1.9,1.5
			l7.9,0c1.7,0.1,2.3-0.7,2.3-0.7l3.9-4.4l3.7,3.6l0.8,0.8l-0.5,2.1l-1,4.3h-3.5h-2.7h-7.6h-8.1v-4.6v-24.5v-3.9h6.6h10.2h8.9h1.4
			H-200.9z M-237.5,403.6l-8.5-14.2l8.5-5.1V403.6z M-211.4,368.8l2.8,4.7h-6.6h-4.1l2-1.2L-211.4,368.8z M-236,366.6l10.1,5.7
			l-1.8,1.1h-9.8v5.8l-8.5,5.1L-236,366.6z M-250,391.3l4.9,8.2l-7.2-4.1L-250,391.3z"/>
		<path class="st0" d="M-206.7,383.2c-0.2,0.4-0.3,0.8-0.3,1.2c0,1.6,1.3,2.9,2.9,2.9c1,0,1.9-0.5,2.4-1.3c0.1-0.2,0.2-0.3,0.3-0.5
			c0.1-0.3,0.2-0.7,0.2-1.1c0-1.5-1.1-2.7-2.6-2.9c-0.1,0-0.2-0.1-0.4-0.1C-205.3,381.5-206.3,382.2-206.7,383.2z"/>
	</g>
</g>
</svg>
