<?xml version="1.0" encoding="utf-8"?>
<!-- Generator: Adobe Illustrator 19.1.0, SVG Export Plug-In . SVG Version: 6.00 Build 0)  -->
<svg version="1.1" id="Capa_1" xmlns="http://www.w3.org/2000/svg" xmlns:xlink="http://www.w3.org/1999/xlink" x="0px" y="0px"
	 viewBox="-296 387 19 19" style="enable-background:new -296 387 19 19;" xml:space="preserve">
<style type="text/css">
	.st0{fill:#FFFFFF;}
</style>
<g>
	<g>
		<path class="st0" d="M-278.1,390.1l-10.6,0c-0.6,0-1.1,0.5-1.1,1.1v0.5c-0.2-0.1-0.5-0.2-0.9-0.2c-0.4,0-0.8,0.1-0.9,0.1
			c-0.1,0-0.2,0.1-0.2,0.1l-4,3.5c-0.1,0.1-0.2,0.3-0.2,0.5l0,5.8c0,0.3,0.4,0.6,0.7,0.6c0,0,1.5,0.1,2.9,0.1c0.8,0,1.4,0,1.7-0.1
			c1.1-0.1,1.5-0.4,1.7-0.6c0.2-0.1,0.4-0.3,0.6-0.4c-0.2,0.6,0.1,1.2,0.6,1.5c0.2,0.1,0.4,0.1,0.6,0.1c0.3,0,0.7-0.1,0.9-0.4
			c0.1,0.2,0.3,0.3,0.4,0.4c0.2,0.1,0.4,0.1,0.6,0.1c0.5,0,0.9-0.3,1.1-0.7l0.8-1.6c0.2-0.3,0.2-0.6,0.1-1c0-0.1-0.1-0.2-0.1-0.3
			l5.2,0c0.6,0,1.1-0.5,1.1-1.1l0-6.9C-277,390.7-277.5,390.1-278.1,390.1z M-285.9,400l-0.8,1.6c-0.1,0.2-0.4,0.3-0.6,0.2
			c-0.2-0.1-0.3-0.4-0.2-0.6l0.7-1.4c0,0,0.2-0.5,0.6-0.6c0.1,0,0.1,0,0.2,0.1c0.1,0.1,0.2,0.2,0.2,0.3
			C-285.9,399.8-285.9,399.9-285.9,400z M-287.2,398.6l-0.8,0.7h0c-0.5,0.4-1,0.9-1.7,1.4c-0.1,0-0.1,0-0.1,0.1c0,0-0.2,0.2-1,0.3
			c-0.2,0-0.7,0-1.6,0c-0.8,0-1.8,0-2.4,0l0-5l3.7-3.3c0.1,0,0.3,0,0.4,0c0.2,0,0.4,0,0.5,0.1v4.1c0,0.2,0.1,0.4,0.3,0.5
			c0,0,0,0,0.1,0v0l0.1,0c0.2,0.1,0.3,0.1,0.5,0c0.9-0.5,2.7-1.3,3.4-1.3c0,0,0.1,0,0.1,0c0,0,0,0,0,0
			C-285.8,396.4-285.7,397-287.2,398.6z M-284,400.2l-0.8,1.6c-0.1,0.2-0.4,0.3-0.6,0.2c-0.2-0.1-0.3-0.4-0.2-0.6l0.8-1.6
			c0.1-0.2,0.2-0.3,0.4-0.3c0.1,0,0.1,0,0.2,0.1c0.1,0.1,0.2,0.2,0.2,0.3C-283.9,399.9-284,400.1-284,400.2z M-277.8,398.2
			c0,0.2-0.2,0.4-0.4,0.4l-7.5,0c0.6-0.8,1-1.4,1-2c0-0.5-0.1-0.8-0.2-0.9c-0.1-0.2-0.4-0.6-1.1-0.6c-0.9,0-2.2,0.6-3.1,1v-1.6
			l11.2,0L-277.8,398.2z M-277.8,392.2l-11.3,0v-1c0-0.2,0.2-0.4,0.4-0.4l10.6,0c0.2,0,0.4,0.2,0.4,0.4L-277.8,392.2z"/>
		<polygon class="st0" points="-278.6,397.9 -278.6,396.9 -281.5,396.9 -281.5,397.9 		"/>
	</g>
</g>
</svg>
