<?xml version="1.0" encoding="utf-8"?>
<!-- Generator: Adobe Illustrator 19.1.0, SVG Export Plug-In . SVG Version: 6.00 Build 0)  -->
<svg version="1.1" id="Capa_1" xmlns="http://www.w3.org/2000/svg" xmlns:xlink="http://www.w3.org/1999/xlink" x="0px" y="0px"
	 viewBox="-213 305.6 183.4 183.4" style="enable-background:new -213 305.6 183.4 183.4;" xml:space="preserve">
<style type="text/css">
	.st0{fill:#FFFFFF;}
</style>
<g>
	<g>
		<path class="st0" d="M-52.2,305.6h-96.7c-5.3,0-10,2.8-12.7,6.9h8.9c1.2-0.5,2.4-0.9,3.7-0.9h96.7c5,0,9.1,4.1,9.1,9.1v125.6
			c0,4.6-3.5,8.3-7.9,8.8c-0.3,2.3-1.1,4.4-2.3,6.3h1.1c8.3,0,15.1-6.8,15.1-15.1V320.7C-37.1,312.4-43.9,305.6-52.2,305.6z"/>
		<path class="st0" d="M-72.9,319.4h-96.7c-5.3,0-10,2.8-12.7,6.9h8.9c1.2-0.5,2.4-0.9,3.7-0.9h96.7c5,0,9.1,4.1,9.1,9.1v125.6
			c0,4.6-3.5,8.3-7.9,8.8c-0.3,2.3-1.1,4.4-2.3,6.3h1.1c8.3,0,15.1-6.8,15.1-15.1V334.5C-57.8,326.2-64.6,319.4-72.9,319.4z"/>
		<path class="st0" d="M-93.7,333.2h-96.7c-8.3,0-15.1,6.8-15.1,15.1v125.6c0,8.3,6.8,15.1,15.1,15.1h96.7c8.3,0,15.1-6.8,15.1-15.1
			V348.3C-78.5,340-85.3,333.2-93.7,333.2z M-84.6,473.9c0,5-4.1,9.1-9.1,9.1h-96.7c-5,0-9.1-4.1-9.1-9.1V348.3c0-5,4.1-9.1,9.1-9.1
			h96.7c5,0,9.1,4.1,9.1,9.1V473.9z"/>
		<path class="st0" d="M-132.8,413.3c6.8-4.5,11.4-13.5,11.4-21.6c0-11.4-9.3-20.7-20.7-20.7c-11.4,0-20.7,9.3-20.7,20.7
			c0,8.1,4.7,17.1,11.4,21.6c-16.2,4.1-28.2,18.2-28.2,28.6c0,12.3,74.9,12.3,74.9,0C-104.5,431.5-116.5,417.5-132.8,413.3z
			 M-142,451.2l-10.5-10.5l8.8-21.4h-0.1l-3.4-3.9c1.7,0.6,3.4,1,5.2,1c1.8,0,3.5-0.4,5.2-0.9l-3.4,3.9h-0.1l8.8,21.4L-142,451.2z"
			/>
	</g>
</g>
</svg>
