<?xml version="1.0" encoding="utf-8"?>
<!-- Generator: Adobe Illustrator 19.2.1, SVG Export Plug-In . SVG Version: 6.00 Build 0)  -->
<svg version="1.1" id="Capa_1" xmlns="http://www.w3.org/2000/svg" xmlns:xlink="http://www.w3.org/1999/xlink" x="0px" y="0px"
	 viewBox="0 0 198.5 198.5" style="enable-background:new 0 0 198.5 198.5;" xml:space="preserve">
<style type="text/css">
	.st0{fill:#FDCC9B;}
	.st1{fill:#FCBC85;}
	.st2{fill:#3B2519;}
	.st3{fill:#FFFFFF;}
	.st4{fill:#F7941E;}
	.st5{fill:#F36C21;}
	.st6{fill:#51362A;}
	.st7{fill:#BF7741;}
</style>
<g>
	<g>
		<rect x="84.6" y="148.2" class="st0" width="29.4" height="32.9"/>
		<path class="st1" d="M84.6,152.1c0,0,12.4,7.9,29.4,6.1v-9.9H84.6V152.1z"/>
		<ellipse class="st1" cx="42.2" cy="97.2" rx="14.3" ry="16.4"/>
		<ellipse class="st1" cx="156.3" cy="97.2" rx="14.3" ry="16.4"/>
		<path class="st0" d="M156.3,65.9c0-24.1-17.6-41.7-57-41.7s-57,17.6-57,41.7s-4.1,87.6,57,87.6S156.3,90,156.3,65.9z"/>
		<g>
			<g>
				<ellipse class="st2" cx="71.5" cy="93.3" rx="6.2" ry="6.8"/>
				<circle class="st3" cx="74.8" cy="96.3" r="1.8"/>
			</g>
			<g>
				<ellipse class="st2" cx="127.8" cy="93.3" rx="6.2" ry="6.8"/>
				<circle class="st3" cx="131.1" cy="96.3" r="1.8"/>
			</g>
		</g>
	</g>
	<path class="st4" d="M99.2,161.5v37H27.8C27.8,183.5,65.4,161.5,99.2,161.5z"/>
	<path class="st4" d="M99.2,161.5v37h71.4C170.7,183.5,133.1,161.5,99.2,161.5z"/>
	<path class="st5" d="M99.2,161.5c-7.2,0-14.6,1-21.7,2.7c0,0.1,7.9,10.2,21.7,10.2c12.8,0,21.2-8.7,22.5-10
		C114.3,162.5,106.7,161.5,99.2,161.5z"/>
	<path class="st0" d="M84.6,162.7c0,0,4.3,5.3,14.7,5.3s14.7-5.3,14.7-5.3S98.7,157.2,84.6,162.7z"/>
	<path class="st6" d="M146.1,19c0,0-21.2-26.9-65.2-16.8C37,12.4,33.7,38.9,35,64.6s4.8,40.8,9,39c4.2-1.9,2-18.9,2.4-22.8
		s4.4-21.7,31.2-19c26.8,2.6,49.3-7.1,49.3-7.1s9.1,11.5,15,13.7c11.9,4.4,8,33.7,12.7,33.7S182.3,34.5,146.1,19z"/>
</g>
<path class="st6" d="M117.5,84.9c2.9,1.5,6.9-17.6,19.9-1.5c2,1,2.3-10.1-9.2-10.1C118.2,73.3,115.7,84,117.5,84.9z"/>
<path class="st6" d="M59.6,86.5c2.9,1.5,6.9-17.6,19.9-1.5c2,1,2.3-10.1-9.2-10.1C60.3,74.9,57.9,85.6,59.6,86.5z"/>
<g>
	<path class="st7" d="M85.7,140.3c-0.3,0-0.6-0.1-0.8-0.2c-0.4-0.2-0.7-0.7-0.7-1.3c0,0,0-0.1,0-0.2c0-6.9,6.8-12.7,15.1-12.7
		s15.1,5.7,15.1,12.7c0,0.1,0,0.2,0,0.2c-0.1,0.5-0.4,1.1-0.8,1.3s-1.1,0.2-1.5,0.1c-3.2-1.6-7.5-2.4-12.1-2.4
		c-4.7,0-9.4,0.8-13.6,2.5C86.1,140.3,85.9,140.3,85.7,140.3z M99.1,129.2c-5.6,0-10.2,3-11.5,7.1c3.9-1.2,8-1.9,12.1-1.9
		c3.9,0,7.6,0.5,10.7,1.7C109.1,132.1,104.5,129.2,99.1,129.2z"/>
</g>
</svg>
