<?xml version="1.0" encoding="utf-8"?>
<!-- Generator: Adobe Illustrator 19.2.1, SVG Export Plug-In . SVG Version: 6.00 Build 0)  -->
<svg version="1.1" id="Capa_1" xmlns="http://www.w3.org/2000/svg" xmlns:xlink="http://www.w3.org/1999/xlink" x="0px" y="0px"
	 viewBox="0 0 198.5 198.5" style="enable-background:new 0 0 198.5 198.5;" xml:space="preserve">
<style type="text/css">
	.st0{fill:#FDCC9B;}
	.st1{fill:#FCBC85;}
	.st2{fill:#3B2519;}
	.st3{fill:#FFFFFF;}
	.st4{fill:#51362A;}
	.st5{fill:#F7941E;}
	.st6{fill:#F36C21;}
	.st7{fill:#BF7741;}
</style>
<g>
	<g>
		<rect x="84.6" y="148.2" class="st0" width="29.4" height="32.9"/>
		<path class="st1" d="M84.6,152.1c0,0,12.4,7.9,29.4,6.1v-9.9H84.6V152.1z"/>
		<ellipse class="st1" cx="42.2" cy="97.2" rx="14.3" ry="16.4"/>
		<ellipse class="st1" cx="156.3" cy="97.2" rx="14.3" ry="16.4"/>
		<path class="st0" d="M156.3,65.9c0-24.1-17.6-41.7-57-41.7s-57,17.6-57,41.7s-4.1,87.6,57,87.6S156.3,90,156.3,65.9z"/>
		<g>
			<g>
				<ellipse class="st2" cx="71.5" cy="93.3" rx="6.2" ry="6.8"/>
				<circle class="st3" cx="73.8" cy="89.3" r="1.8"/>
			</g>
			<g>
				<ellipse class="st2" cx="127.8" cy="93.3" rx="6.2" ry="6.8"/>
				<circle class="st3" cx="130.1" cy="89.3" r="1.8"/>
			</g>
			<path class="st4" d="M141.6,83.5c-0.2,0-0.3,0.1-0.5,0.2c-3.2,2-13.1-8.9-25,0.5c-2.5,1.2-2.8-8.8,11.8-8.8
				C139.9,75.4,144.5,82.7,141.6,83.5z"/>
		</g>
	</g>
	<path class="st5" d="M99.2,161.5v37H27.8C27.8,183.5,65.4,161.5,99.2,161.5z"/>
	<path class="st5" d="M99.2,161.5v37h71.4C170.7,183.5,133.1,161.5,99.2,161.5z"/>
	<path class="st6" d="M99.2,161.5c-7.2,0-14.6,1-21.7,2.7c0,0.1,7.9,10.2,21.7,10.2c12.8,0,21.2-8.7,22.5-10
		C114.3,162.5,106.7,161.5,99.2,161.5z"/>
	<path class="st0" d="M84.6,162.7c0,0,4.3,5.3,14.7,5.3s14.7-5.3,14.7-5.3S98.7,157.2,84.6,162.7z"/>
	<path class="st4" d="M146.1,19c0,0-21.2-26.9-65.2-16.8C37,12.4,33.7,38.9,35,64.6s4.8,40.8,9,39c4.2-1.9,2-18.9,2.4-22.8
		s4.4-21.7,31.2-19c26.8,2.6,49.3-7.1,49.3-7.1s9.1,11.5,15,13.7c11.9,4.4,8,33.7,12.7,33.7S182.3,34.5,146.1,19z"/>
</g>
<path class="st4" d="M83.6,81.4c-0.2,0-0.3,0.1-0.5,0.2c-3.2,2-18.6-12.3-25,0.5c-2.5,1.2-1.9-14.9,11.8-9.8
	C82.5,77.1,86.6,80.6,83.6,81.4z"/>
<path class="st7" d="M115,127.5v7.9c0,5.3-5.9,9.5-13.2,9.5h-2.3c-7.3,0-13.2-4.3-13.2-9.5v-7.9c0-5.3,5.9-9.5,13.2-9.5h2.3
	C109.1,118,115,122.3,115,127.5z M108.2,135.5v-4.6H92.8v4.6c0,2.6,2.8,4.6,6.4,4.6h2.3C105.3,140.2,108.2,138.1,108.2,135.5z
	 M93.3,125.9h14.5c-0.9-1.8-3.2-3.1-6-3.1h-2.3C96.5,122.9,94.2,124.2,93.3,125.9z"/>
</svg>
