<?xml version="1.0" encoding="utf-8"?>
<!-- Generator: Adobe Illustrator 19.2.1, SVG Export Plug-In . SVG Version: 6.00 Build 0)  -->
<svg version="1.1" id="Layer_1" xmlns="http://www.w3.org/2000/svg" xmlns:xlink="http://www.w3.org/1999/xlink" x="0px" y="0px"
	 viewBox="0 0 512 512" style="enable-background:new 0 0 512 512;" xml:space="preserve">
<style type="text/css">
	.st0{fill:#F9F0E5;}
	.st1{fill:#324A5E;}
	.st2{fill:#2B3B4E;}
	.st3{fill:#FD8469;}
	.st4{fill:#FC6F58;}
	.st5{fill:#F1543F;}
	.st6{fill:#2B9ED8;}
	.st7{fill:#1D8CB7;}
	.st8{fill:#03212D;}
	.st9{fill:#F9B54C;}
	.st10{fill:#E6F3FF;}
</style>
<circle class="st0" cx="256" cy="256" r="256"/>
<rect x="208.6" y="170.7" class="st1" width="94.8" height="77.6"/>
<rect x="255.4" y="170.7" class="st2" width="48" height="77.6"/>
<path class="st3" d="M175.4,369.8H147V244.1c0-9.1,7.4-16.5,16.5-16.5h11.9V369.8L175.4,369.8z"/>
<path class="st4" d="M336.6,369.8H365V244.1c0-9.1-7.4-16.5-16.5-16.5h-11.9V369.8z"/>
<rect x="160.8" y="152.1" class="st1" width="48.3" height="8.6"/>
<rect x="312.9" y="152.1" class="st2" width="48.3" height="8.6"/>
<path class="st5" d="M307.1,202.2H204.9c-9.9,0-17.9-8-17.9-17.9V127c0-9.9,8-17.9,17.9-17.9H307c9.9,0,17.9,8,17.9,17.9v57.3
	C325,194.2,316.9,202.2,307.1,202.2z"/>
<path class="st4" d="M307.1,109.1h-51.6v93.1h51.6c9.9,0,17.9-8,17.9-17.9V127C325,117.2,316.9,109.1,307.1,109.1z"/>
<rect x="184.5" y="312.9" class="st3" width="50.8" height="113.8"/>
<rect x="276.8" y="312.9" class="st4" width="50.8" height="113.8"/>
<path class="st6" d="M317.8,346.3H194.2c-13,0-23.5-10.5-23.5-23.5v-83c0-13,10.5-23.5,23.5-23.5h123.6c13,0,23.5,10.5,23.5,23.5v83
	C341.3,335.7,330.8,346.3,317.8,346.3z"/>
<path class="st7" d="M317.8,216.2h-62.4v130h62.4c13,0,23.5-10.5,23.5-23.5v-83C341.3,226.8,330.8,216.2,317.8,216.2z"/>
<circle class="st8" cx="156.4" cy="155.7" r="14.2"/>
<circle class="st9" cx="221.5" cy="281.2" r="28.4"/>
<circle class="st0" cx="213.3" cy="156.4" r="14.2"/>
<circle class="st1" cx="213" cy="155.4" r="7.9"/>
<circle class="st0" cx="298.7" cy="156.4" r="14.2"/>
<circle class="st8" cx="355.6" cy="155.7" r="14.2"/>
<rect x="273.7" y="242.4" class="st10" width="50" height="77.6"/>
<rect x="149.9" y="398.2" class="st1" width="85.3" height="28.4"/>
<rect x="276.8" y="398.2" class="st2" width="85.3" height="28.4"/>
<rect x="336.6" y="341.3" class="st5" width="34.5" height="28.4"/>
<rect x="140.9" y="341.3" class="st4" width="34.5" height="28.4"/>
<path class="st1" d="M256,193.6c-10.6,0-19.3-7-19.3-15.7h6.8c0,5.6,5.6,10.1,12.5,10.1c6.9,0,12.5-4.6,12.5-10.1h6.8
	C275.3,186.6,266.6,193.6,256,193.6z"/>
<g>
	<path class="st2" d="M268.5,177.9c0,5.6-5.6,10.1-12.5,10.1c-0.3,0-0.5,0-0.8,0v5.6c0.3,0,0.5,0,0.8,0c10.6,0,19.3-7,19.3-15.7
		H268.5z"/>
	<circle class="st2" cx="299" cy="155.4" r="7.9"/>
</g>
</svg>
