<?xml version="1.0" encoding="utf-8"?>
<!-- Generator: Adobe Illustrator 19.2.1, SVG Export Plug-In . SVG Version: 6.00 Build 0)  -->
<svg version="1.1" id="Layer_1" xmlns="http://www.w3.org/2000/svg" xmlns:xlink="http://www.w3.org/1999/xlink" x="0px" y="0px"
	 viewBox="0 0 512 512" style="enable-background:new 0 0 512 512;" xml:space="preserve">
<style type="text/css">
	.st0{fill:#FCD2B1;}
	.st1{fill:#E6E6E6;}
	.st2{fill:#6D1B05;}
	.st3{fill:#F9EFE8;}
	.st4{fill:#F4BE92;}
	.st5{fill:#808080;}
</style>
<path class="st0" d="M135.1,270.4v8.6c0,16.9,5.4,27.1,16.1,30.5c-4.3-11.7-6.8-23.2-7.2-34.4C140.5,274.8,137.6,273,135.1,270.4z"
	/>
<path class="st1" d="M143.8,263.1v-48.9c-2.3-2.9-6.8-5.4-11.2-4.9c-0.8,0.1-2.2,0.3-2.7,1c-1.8,2.5,2.1,22.8,2.1,22.8
	C135.3,250.7,140.3,260.3,143.8,263.1z"/>
<path class="st0" d="M306,285.6c-11.9-1.5-26.8-9.4-31.6-12.1h-36.8c-4.8,2.7-19.7,10.6-31.6,12.1c3.5,2.6,8.7,4.7,16.6,4.7
	c8.6,0,19.2-2.4,31.4-7.1c0.7-0.3,1.4-0.4,2-0.4c0.7,0,1.4,0.1,2,0.4c12.3,4.7,22.8,7.1,31.4,7.1C297.3,290.2,302.6,288.2,306,285.6
	z"/>
<path class="st2" d="M196.3,233.5c7.2,3.4,16.3,2.1,27.1-3.7c7.6-4.1,11.8-9.1,12.6-15.3c1.4-10.2-6.5-22.2-12.1-28.9
	c-15,11.6-30,20.3-43.2,26.9C182.7,218.5,187.2,229.2,196.3,233.5z"/>
<g>
	<path class="st1" d="M193,288.5c-3.5-4.9-5.1-10.2-5.4-14.1c-0.2-3,2-5.7,5-6.1c3-0.4,5.8,1.7,6.3,4.6c0.1,0.7,0.3,1.5,3.3,1.5
		c7.8,0,21.1-6.2,28.1-10v-3.6c0-8.9,4.4-19.5,25.6-19.5c21.2,0,25.6,10.6,25.6,19.5v3.6c7,3.8,20.3,10,28.1,10c3,0,3.1-0.8,3.3-1.5
		c0.5-3,3.3-5,6.3-4.6c3,0.4,5.2,3,5,6.1c-0.3,3.9-1.8,9.1-5.2,14c1.7,2.2,7.8,5.6,17.9,5.6c10.8,0,17.4-3.9,18.3-6.3
		c1-5.4,1.6-10.9,1.6-16.3V249c-14-2.7-24.5-15-24.5-29.7v-44.7c-35.6-12.7-73.6-14.2-76.2-14.3c-0.5,0-2,0.1-4.5,0.2
		c-6.1,6.6-12.4,12.5-18.7,17.9c6.2,7.4,16.7,22.5,14.6,37.7c-1.4,9.8-7.6,17.8-18.5,23.7c-8.6,4.6-16.6,7-23.9,7
		c-4.8,0-9.3-1-13.6-3c-6.1-2.9-10.7-7.6-14.1-12.5c-3.9,9-12.1,15.8-22,17.7v22.3c0,5.1,1.6,15.8,1.7,16.2
		c0.6,2.3,7.3,6.5,18.3,6.5C185.1,293.9,191.1,290.7,193,288.5z M292.6,228.8h-5.2c-3.2,0-5.7-2.6-5.7-5.7s2.6-5.7,5.7-5.7h5.2
		c3.2,0,5.7,2.6,5.7,5.7S295.8,228.8,292.6,228.8z M269.6,199.1l44.5-6.5c3.1-0.5,6,1.7,6.5,4.8c0.5,3.1-1.7,6-4.8,6.5l-44.5,6.5
		c-0.3,0-0.6,0.1-0.8,0.1c-2.8,0-5.2-2-5.6-4.9C264.3,202.5,266.4,199.6,269.6,199.1z"/>
	<path class="st1" d="M168.3,219.3v-0.8c-4.9,2.2-9.3,4.1-13.1,5.7v13.1C162.8,234.8,168.3,227.7,168.3,219.3z"/>
</g>
<path class="st0" d="M168.3,179.1c-10.8,4.8-21,10.8-29.4,18.3v1.1c6.4,1.5,12.3,5.6,15.5,11.1c0.4,0.7,0.6,1.4,0.7,2.2
	c4-1.7,8.4-3.6,13.2-5.9L168.3,179.1L168.3,179.1L168.3,179.1z"/>
<g>
	<path class="st1" d="M179.8,174.6v25.6c16.7-8.7,36-20.9,54-38C219.1,164.1,199,167.7,179.8,174.6z"/>
	<path class="st1" d="M326.2,365.5c-4.1,4.6-8.4,8.9-12.7,12.9l18.4,17.4l27.2-27.1c-5.2-9.5-11.9-18.2-16.5-23.8
		C337.6,351.9,332.2,358.8,326.2,365.5z"/>
</g>
<path class="st3" d="M62.5,440.2c0,20.5-6.3,47.6-9.7,60.4h37.3v-94.9C79.6,411.9,62.5,424.4,62.5,440.2z"/>
<path class="st0" d="M373.1,197.4c-8.4-7.5-18.6-13.5-29.4-18.3v40.2c0,8.4,5.5,15.5,13.1,17.9c0,0,0-23.1,0-24.7s1-3.2,1-3.2
	c3.3-5.4,9-9.3,15.3-10.7L373.1,197.4L373.1,197.4z"/>
<path class="st1" d="M225.8,107.8h8.3c3.2,0,5.7,2.6,5.7,5.7v3.8h32.4v-3.8c0-3.2,2.6-5.7,5.7-5.7h8.3c5.2,0,9.4-4.2,9.4-9.4
	c0-11.4-4.9-22.2-13.4-29.7c-3.6-3.2-13.7-9.2-26.2-9.2c-15.4,0-25.1,8.2-26.2,9.2c-8.5,7.5-13.4,18.3-13.4,29.7
	C216.4,103.5,220.6,107.8,225.8,107.8z M266.4,84.4c1.1-1.1,2.5-1.7,4-1.7c1.5,0,3,0.6,4,1.7c1.1,1.1,1.7,2.5,1.7,4s-0.6,3-1.7,4
	c-1.1,1.1-2.5,1.7-4,1.7c-1.5,0-3-0.6-4-1.7s-1.7-2.5-1.7-4S265.3,85.4,266.4,84.4z M237.6,84.4c1.1-1.1,2.5-1.7,4-1.7
	c1.5,0,3,0.6,4,1.7c1.1,1.1,1.7,2.5,1.7,4c0,1.5-0.6,3-1.7,4c-1.1,1.1-2.5,1.7-4,1.7c-1.5,0-3-0.6-4-1.7c-1.1-1.1-1.7-2.5-1.7-4
	C235.9,86.9,236.5,85.4,237.6,84.4z"/>
<path class="st3" d="M255.9,148.9c0,0,0.1,0,0.1,0c0,0,0.1,0,0.1,0c3.3,0.1,79.7,2.3,122.2,38l56.2-61.6c-0.6-2-2.1-4.6-5.7-4.6
	c-1.4,0-3.2,0.3-5.1,1c-6.9,2.3-13.6,4.3-20.6,4.3c-14.5,0-26-9.1-36.4-28.7c-17.6-33.3-42.3-72.5-78.5-84.5
	c-4.7,13.5-17.6,23-32.3,23c-14.7,0-27.6-9.5-32.3-23c-36.2,12-60.9,51.1-78.5,84.5c-10.4,19.6-21.9,28.7-36.4,28.7
	c-7,0-13.7-2.1-20.6-4.3c-1.9-0.6-3.6-1-5.1-1c-3.7,0-5.1,2.6-5.7,4.5l56.2,61.6C176.2,151.2,252.5,149,255.9,148.9z M222.3,60.1
	c2.3-2,14.6-12,33.7-12c15.9,0,28.7,7.6,33.7,12c11,9.7,17.3,23.6,17.3,38.3c0,11.5-9.3,20.8-20.8,20.8h-2.6l0,14.3
	c0,3.2-2.6,5.7-5.7,5.7c-3.2,0-5.7-2.6-5.7-5.7v-4.8h-10.5v4.8c0,3.2-2.6,5.7-5.7,5.7s-5.7-2.6-5.7-5.7v-4.8h-10.5v4.8
	c0,3.2-2.6,5.7-5.7,5.7s-5.7-2.6-5.7-5.7v-14.3h-2.6c-11.5,0-20.8-9.3-20.8-20.8C205,83.7,211.3,69.8,222.3,60.1z"/>
<path class="st4" d="M360.9,309.6c10.7-3.4,16.1-13.6,16.1-30.5v-8.7c-2.6,2.6-5.5,4.3-8.9,4.8C367.6,286.4,365.2,298,360.9,309.6z"
	/>
<path class="st1" d="M379.4,209.4c-4.4-0.5-8.9,2-11.2,4.9v48.9c3.5-2.8,8.5-12.4,11.9-30c0,0,3.9-20.3,2.1-22.8
	C381.7,209.7,380.2,209.5,379.4,209.4z"/>
<polygon class="st5" points="323.7,403.7 311,391.7 317.4,410 "/>
<g>
	<path class="st2" d="M368.6,445.5v-2.8c0-2.1-1.7-3.8-3.8-3.8h-45.6c-0.3,3.5-0.6,6.9-0.9,10.4h46.4
		C366.9,449.2,368.6,447.5,368.6,445.5z"/>
	<path class="st2" d="M364.9,490.2h-49.8c-0.3,4.1-0.6,7.7-0.9,10.4h50.7c2.1,0,3.8-1.7,3.8-3.8V494
		C368.6,491.9,366.9,490.2,364.9,490.2z"/>
</g>
<path class="st1" d="M300.7,396.9l-2.2-6.2c-15.5,11.4-30.7,18.1-42.5,18.1c-11.8,0-27-6.7-42.5-18.1l-2.2,6.2
	c3.5,28.1,35.6,46.9,44.7,51.7C265.1,443.7,297.2,424.8,300.7,396.9z"/>
<path class="st5" d="M261.7,458.4v42.1h41c1.1-13.1,4-48.5,6.5-79.4l-2.2-6.1C296,438.6,270.8,453.6,261.7,458.4z"/>
<path class="st0" d="M337,305.3c-11.6,0-21.2-3.6-26.1-9.2c-5.2,3.3-12.2,5.5-21.4,5.5c-0.3,0-0.6,0-1,0
	c-0.6,12.4-27.1,13.1-32.5,13.1s-31.9-0.6-32.5-13.1c-0.3,0-0.6,0-0.9,0c-9.1,0-16-2.2-21.2-5.4c-5,5.5-14.6,9.1-26.1,9.1
	c-5.2,0-10.1-0.8-14.3-2.1c17.4,50,69.5,94.1,95,94.1c25.5,0,77.6-44.1,95-94.1C346.8,304.6,342.1,305.3,337,305.3z"/>
<path class="st3" d="M320.6,423c-0.1,1.5-0.2,3-0.4,4.4h44.7c8.4,0,15.2,6.8,15.2,15.2v2.8c0,8.4-6.8,15.2-15.2,15.2h-47.4
	c-0.5,6.4-1,12.6-1.5,18.1h48.9c8.4,0,15.2,6.8,15.2,15.2v2.8c0,1.3-0.2,2.6-0.5,3.8h30.9V388.8l-42.8-12.7L320.6,423z"/>
<path class="st1" d="M235.9,300.3c3.1,1.4,10.1,3,20.1,3c10,0,16.9-1.6,20.1-3c-6.2-1.2-12.9-3-20.1-5.7
	C248.8,297.2,242.1,299.1,235.9,300.3z"/>
<path class="st3" d="M421.9,405.6v94.9h37.3c-3.3-12.8-9.7-39.9-9.7-60.4C449.5,425.3,433.5,412.5,421.9,405.6z"/>
<path class="st5" d="M204.9,415l-2.2,6.1c2.5,30.9,5.4,66.3,6.5,79.4h41v-42.1C241.2,453.6,216,438.6,204.9,415z"/>
<g>
	<path class="st2" d="M143.4,442.6v2.8c0,2.1,1.7,3.8,3.8,3.8h46.4c-0.3-3.4-0.6-6.9-0.9-10.4h-45.6
		C145.1,438.8,143.4,440.5,143.4,442.6z"/>
	<path class="st2" d="M147.1,490.2c-2.1,0-3.8,1.7-3.8,3.8v2.8c0,2.1,1.7,3.8,3.8,3.8h50.7c-0.2-2.7-0.5-6.2-0.9-10.4L147.1,490.2
		L147.1,490.2z"/>
</g>
<path class="st3" d="M147.1,478.8H196c-0.5-5.6-1-11.7-1.5-18.1h-47.4c-8.4,0-15.2-6.8-15.2-15.2v-2.8c0-8.4,6.8-15.2,15.2-15.2
	h44.7c-0.1-1.5-0.2-3-0.4-4.4l-47.1-46.9l-42.8,12.7v111.8h30.9c-0.3-1.2-0.5-2.5-0.5-3.8V494C131.9,485.6,138.8,478.8,147.1,478.8z
	"/>
<g>
	<path class="st1" d="M256,252.7c-14.2,0-14.2,5.1-14.2,8.1v1.2h28.4v-1.2C270.2,257.8,270.2,252.7,256,252.7z"/>
	<path class="st1" d="M198.6,378.3c-4.3-4-8.6-8.3-12.7-12.9c-6-6.7-11.5-13.6-16.3-20.7c-4.7,5.6-11.3,14.3-16.5,23.8l27.2,27.1
		L198.6,378.3z"/>
</g>
<polygon class="st5" points="194.6,410 201,391.7 188.3,403.7 "/>
<path d="M270.4,210.5c0.3,0,0.6,0,0.8-0.1l44.5-6.5c3.1-0.5,5.3-3.4,4.8-6.5c-0.5-3.1-3.4-5.3-6.5-4.8l-44.5,6.5
	c-3.1,0.5-5.3,3.4-4.8,6.5C265.2,208.4,267.6,210.5,270.4,210.5z"/>
<path d="M292.6,217.4h-5.2c-3.2,0-5.7,2.6-5.7,5.7s2.6,5.7,5.7,5.7h5.2c3.2,0,5.7-2.6,5.7-5.7C298.4,219.9,295.8,217.4,292.6,217.4z
	"/>
<path d="M241.6,94.1c1.5,0,3-0.6,4-1.7c1.1-1.1,1.7-2.5,1.7-4c0-1.5-0.6-3-1.7-4c-1.1-1.1-2.5-1.7-4-1.7c-1.5,0-3,0.6-4,1.7
	c-1.1,1.1-1.7,2.5-1.7,4c0,1.5,0.6,3,1.7,4C238.6,93.5,240.1,94.1,241.6,94.1z"/>
<path d="M270.4,94.1c1.5,0,3-0.6,4-1.7s1.7-2.5,1.7-4s-0.6-3-1.7-4c-1.1-1.1-2.5-1.7-4-1.7c-1.5,0-3,0.6-4,1.7
	c-1.1,1.1-1.7,2.5-1.7,4s0.6,3,1.7,4C267.4,93.5,268.9,94.1,270.4,94.1z"/>
<path d="M225.8,119.2h2.6v14.3c0,3.2,2.6,5.7,5.7,5.7s5.7-2.6,5.7-5.7v-4.8h10.5v4.8c0,3.2,2.6,5.7,5.7,5.7c3.2,0,5.7-2.6,5.7-5.7
	v-4.8h10.5v4.8c0,3.2,2.6,5.7,5.7,5.7c3.2,0,5.7-2.6,5.7-5.7l0-14.3h2.6c11.5,0,20.8-9.3,20.8-20.8c0-14.6-6.3-28.6-17.3-38.3
	c-5.1-4.5-17.9-12-33.7-12c-19.2,0-31.5,10-33.7,12c-11,9.7-17.3,23.6-17.3,38.3C205,109.8,214.3,119.2,225.8,119.2z M229.8,68.7
	c1.1-0.9,10.8-9.2,26.2-9.2c12.5,0,22.6,6,26.2,9.2c8.5,7.5,13.4,18.3,13.4,29.7c0,5.2-4.2,9.4-9.4,9.4h-8.3c-3.2,0-5.7,2.6-5.7,5.7
	v3.8h-32.4v-3.8c0-3.2-2.6-5.7-5.7-5.7h-8.3c-5.2,0-9.4-4.2-9.4-9.4C216.4,87,221.3,76.2,229.8,68.7z"/>
<path d="M460.9,440.2c0-25.4-28.9-42.4-39.1-47.5v-8.1c0-2.5-1.7-4.8-4.1-5.5L370,364.9c-6.7-12.7-15.6-23.9-21.1-30.2
	c2.4-4.1,4.7-8.3,6.7-12.5c12.1-1,32.8-7.9,32.8-43.1l0-31.5c1.3-4.4,9.5-37.1,2.9-44c-1.9-2-4-3.8-6.8-4.7v-1.7l60.4-66.2
	c1-1.1,1.6-2.6,1.5-4.2c-0.4-7-5.4-17.4-17.5-17.4c-2.7,0-5.6,0.5-8.7,1.6c-5.9,2-11.7,3.8-17,3.8c-6.7,0-15.7-2.6-26.3-22.6
	c-19.6-37.1-47.8-81.1-91.4-91.8C284-0.2,282.3,0.1,281,1c-1.3,0.9-2.2,2.3-2.5,3.9C277,16.1,267.3,24.5,256,24.5s-21-8.4-22.5-19.6
	c-0.2-1.6-1.1-3-2.5-3.9c-1.3-0.9-3-1.2-4.6-0.8c-43.6,10.7-71.7,54.7-91.4,91.8c-10.6,20.1-19.6,22.6-26.3,22.6
	c-5.3,0-11-1.8-17-3.8c-3.1-1-6-1.6-8.7-1.6c-12.1,0-17.1,10.4-17.5,17.4c-0.1,1.5,0.4,3,1.5,4.2l60.4,66.2v1.7
	c-2.8,1-4.9,2.7-6.8,4.7c-6.6,6.9,1.7,39.7,3,44.1l0,31.4c0,35.2,20.7,42.1,32.8,43.1c2,4.2,4.2,8.4,6.7,12.5
	c-5.5,6.3-14.4,17.5-21.1,30.2l-47.8,14.2c-2.4,0.7-4.1,2.9-4.1,5.5v8.1c-10.1,5.2-39.1,22.2-39.1,47.5c0,25.6-11.1,64.1-11.2,64.5
	c-0.5,1.7-0.2,3.6,0.9,5c1.1,1.4,2.8,2.3,4.6,2.3h421.2c1.8,0,3.5-0.8,4.6-2.3c1.1-1.4,1.4-3.3,0.9-5
	C472,504.3,460.9,465.8,460.9,440.2z M90.1,500.6H52.9c3.3-12.8,9.7-39.9,9.7-60.4c0-15.8,17.1-28.3,27.6-34.5L90.1,500.6
	L90.1,500.6z M359,368.6l-27.2,27.1l-18.4-17.4c4.3-4,8.6-8.3,12.7-12.9c6-6.7,11.5-13.6,16.3-20.7
	C347.1,350.4,353.7,359.1,359,368.6z M357.8,209.3c0,0-1,1.6-1,3.2s0,24.7,0,24.7c-7.6-2.4-13.1-9.5-13.1-17.9v-40.2
	c10.8,4.8,21,10.8,29.4,18.3v1.1C366.8,200,361,203.9,357.8,209.3z M377,279.1c0,16.9-5.4,27.1-16.1,30.5
	c4.3-11.7,6.8-23.2,7.2-34.4c3.4-0.5,6.3-2.2,8.9-4.8V279.1z M380.1,233.1c-3.4,17.7-8.4,27.3-11.9,30v-48.9
	c2.3-2.9,6.8-5.4,11.2-4.9c0.8,0.1,2.3,0.3,2.7,1C383.9,212.8,380.1,233.1,380.1,233.1z M77.4,125.3c0.6-2,2-4.5,5.7-4.5
	c1.4,0,3.2,0.3,5.1,1c6.9,2.3,13.6,4.3,20.6,4.3c14.5,0,26-9.1,36.4-28.7c17.6-33.3,42.3-72.5,78.5-84.5c4.7,13.5,17.6,23,32.3,23
	c14.7,0,27.6-9.5,32.3-23c36.2,12,60.9,51.1,78.5,84.5c10.4,19.6,21.9,28.7,36.4,28.7c7,0,13.7-2.1,20.6-4.3c1.9-0.6,3.6-1,5.1-1
	c3.6,0,5.1,2.5,5.7,4.6l-56.2,61.6c-42.5-35.7-118.9-37.9-122.2-38c0,0-0.1,0-0.1,0c0,0-0.1,0-0.1,0c-3.3,0.1-79.7,2.3-122.2,38
	L77.4,125.3z M179.8,200.2v-25.6c19.3-6.9,39.3-10.5,54-12.3C215.7,179.3,196.4,191.5,179.8,200.2z M223.9,185.6
	c5.6,6.7,13.6,18.7,12.1,28.9c-0.9,6.1-5,11.1-12.6,15.3c-10.8,5.9-19.9,7.1-27.1,3.7c-9.1-4.3-13.6-15-15.5-21
	C193.9,205.9,208.9,197.2,223.9,185.6z M131.9,233.1c0,0-3.9-20.3-2.1-22.8c0.5-0.6,1.9-0.9,2.7-1c4.4-0.5,8.9,2,11.2,4.9v48.9
	C140.3,260.3,135.3,250.7,131.9,233.1z M135.1,279.1v-8.6c2.5,2.6,5.5,4.3,8.8,4.8c0.5,11.1,3,22.7,7.2,34.4
	C140.5,306.2,135.1,296,135.1,279.1z M154.4,209.6c-3.2-5.5-9.1-9.6-15.5-11.1v-1.1c8.4-7.5,18.6-13.5,29.4-18.3v26.8
	c-4.8,2.3-9.2,4.2-13.2,5.9C155.1,211,154.8,210.3,154.4,209.6z M168.3,218.5v0.8c0,8.4-5.5,15.5-13.1,17.9v-13.1
	C159.1,222.5,163.5,220.7,168.3,218.5z M156.9,287.4c-0.1-0.3-1.7-11.1-1.7-16.2V249c9.9-1.9,18.1-8.7,22-17.7
	c3.4,4.9,8,9.6,14.1,12.5c4.2,2,8.8,3,13.6,3c7.3,0,15.3-2.3,23.9-7c10.9-5.9,17.1-13.9,18.5-23.7c2.1-15.2-8.4-30.3-14.6-37.7
	c6.4-5.4,12.6-11.4,18.7-17.9c2.4-0.2,4-0.2,4.5-0.2c2.6,0.1,40.7,1.5,76.2,14.3v44.7c0,14.7,10.6,27,24.5,29.7v22.3
	c0,5.4-0.6,10.9-1.6,16.3c-0.9,2.4-7.5,6.3-18.3,6.3c-10,0-16.1-3.4-17.9-5.6c3.5-4.9,5-10.1,5.2-14c0.2-3-2-5.7-5-6.1
	c-3-0.4-5.8,1.7-6.3,4.6c-0.1,0.7-0.3,1.5-3.3,1.5c-7.8,0-21.1-6.2-28.1-10v-3.6c0-8.9-4.4-19.5-25.6-19.5
	c-21.2,0-25.6,10.6-25.6,19.5v3.6c-7,3.8-20.3,10-28.1,10c-3,0-3.1-0.8-3.3-1.5c-0.5-3-3.3-5-6.3-4.6c-3,0.4-5.2,3-5,6.1
	c0.3,3.9,1.8,9.2,5.4,14.1c-1.9,2.2-8,5.4-17.7,5.4C164.2,293.9,157.6,289.7,156.9,287.4z M258,283.2c-0.7-0.3-1.4-0.4-2-0.4
	c-0.7,0-1.4,0.1-2,0.4c-12.3,4.7-22.8,7.1-31.4,7.1c-7.9,0-13.1-2-16.6-4.7c11.9-1.5,26.8-9.4,31.6-12.1h36.8
	c4.8,2.7,19.7,10.6,31.6,12.1c-3.5,2.6-8.7,4.7-16.6,4.7C280.9,290.2,270.3,287.9,258,283.2z M276.1,300.3c-3.1,1.4-10.1,3-20.1,3
	s-16.9-1.6-20.1-3c6.2-1.2,12.9-3,20.1-5.7C263.2,297.2,269.9,299.1,276.1,300.3z M241.8,262.1v-1.2c0-3,0-8.1,14.2-8.1
	c14.2,0,14.2,5.1,14.2,8.1v1.2H241.8z M169.5,344.8c4.8,7.1,10.3,14,16.3,20.7c4.1,4.6,8.4,8.9,12.7,12.9l-18.4,17.4L153,368.6
	C158.3,359.1,164.9,350.4,169.5,344.8z M132.4,500.6h-30.9V388.8l42.8-12.7l47.1,46.9c0.1,1.5,0.2,3,0.4,4.4h-44.7
	c-8.4,0-15.2,6.8-15.2,15.2v2.8c0,8.4,6.8,15.2,15.2,15.2h47.4c0.5,6.4,1,12.6,1.5,18.1h-48.9c-8.4,0-15.2,6.8-15.2,15.2v2.8
	C131.9,498.1,132.1,499.4,132.4,500.6z M192.7,438.8c0.3,3.5,0.6,6.9,0.9,10.4h-46.4c-2.1,0-3.8-1.7-3.8-3.8v-2.8
	c0-2.1,1.7-3.8,3.8-3.8L192.7,438.8L192.7,438.8L192.7,438.8z M147.1,500.6c-2.1,0-3.8-1.7-3.8-3.8V494c0-2.1,1.7-3.8,3.8-3.8H197
	c0.3,4.1,0.6,7.7,0.9,10.4L147.1,500.6L147.1,500.6z M194.6,410l-6.3-6.3l12.7-12L194.6,410z M250.3,500.6h-41
	c-1.1-13.1-4-48.5-6.5-79.4l2.2-6.1c11.1,23.6,36.3,38.6,45.4,43.4L250.3,500.6L250.3,500.6z M211.3,396.9l2.2-6.2
	c15.5,11.4,30.7,18.1,42.5,18.1c11.8,0,27-6.7,42.5-18.1l2.2,6.2c-3.5,28-35.6,46.9-44.7,51.7C246.9,443.7,214.8,424.9,211.3,396.9z
	 M302.7,500.6h-41v-42.1c9.1-4.8,34.3-19.8,45.4-43.4l2.2,6.1C306.7,452.1,303.8,487.5,302.7,500.6z M256,397.3
	c-25.5,0-77.7-44.1-95-94.1c4.2,1.4,9.1,2.1,14.3,2.1c11.5,0,21.1-3.6,26.1-9.1c5.2,3.2,12.1,5.4,21.2,5.4c0.3,0,0.6,0,0.9,0
	c0.6,12.4,27.1,13.1,32.5,13.1c5.4,0,31.9-0.6,32.5-13.1c0.3,0,0.6,0,1,0c9.2,0,16.2-2.2,21.4-5.5c5,5.6,14.6,9.2,26.1,9.2
	c5.1,0,9.9-0.7,14.1-2C333.6,353.3,281.5,397.3,256,397.3z M323.7,403.7l-6.3,6.3l-6.4-18.3L323.7,403.7z M319.3,438.8h45.6
	c2.1,0,3.8,1.7,3.8,3.8v2.8c0,2.1-1.7,3.8-3.8,3.8h-46.4C318.7,445.8,319,442.3,319.3,438.8z M368.6,496.8c0,2.1-1.7,3.8-3.8,3.8
	h-50.7c0.2-2.7,0.5-6.2,0.9-10.4h49.8c2.1,0,3.8,1.7,3.8,3.8L368.6,496.8L368.6,496.8z M410.4,500.6h-30.9c0.3-1.2,0.5-2.5,0.5-3.8
	V494c0-8.4-6.8-15.2-15.2-15.2H316c0.5-5.6,1-11.7,1.5-18.1h47.4c8.4,0,15.2-6.8,15.2-15.2v-2.8c0-8.4-6.8-15.2-15.2-15.2h-44.7
	c0.1-1.5,0.2-3,0.4-4.4l47.1-46.9l42.8,12.7L410.4,500.6L410.4,500.6z M421.9,500.6v-94.9c11.6,6.9,27.6,19.6,27.6,34.5
	c0,20.5,6.3,47.6,9.7,60.4H421.9L421.9,500.6L421.9,500.6z"/>
</svg>
