<?xml version="1.0" encoding="utf-8"?>
<!-- Generator: Adobe Illustrator 19.2.1, SVG Export Plug-In . SVG Version: 6.00 Build 0)  -->
<svg version="1.1" id="Layer_1" xmlns="http://www.w3.org/2000/svg" xmlns:xlink="http://www.w3.org/1999/xlink" x="0px" y="0px"
	 viewBox="0 0 388 409" style="enable-background:new 0 0 388 409;" xml:space="preserve">
<style type="text/css">
	.st0{fill:#324A5E;}
	.st1{fill:#E6E9EE;}
	.st2{fill:#F4A60C;}
	.st3{fill:#D2F2FC;}
	.st4{fill:#FFFFFF;}
</style>
<path class="st0" d="M336.2,298.7c-0.8,0-1.6,0-2.4-0.4c-5.6-1.2-9.2-7.2-8-12.8l13.6-58.4l-56.4-56c-4-4-4-10.8,0-15.2
	c4-4,10.8-4,15.2,0l64.8,64.8l-16.4,70C345.4,295.5,341,298.7,336.2,298.7z"/>
<path class="st1" d="M281,184.7L281,184.7c10.8,0,19.6-8.8,19.6-19.6v-3.6c0-10.8-8.8-19.6-19.6-19.6l0,0V184.7z"/>
<path class="st0" d="M339.8,327.9c-2,0-4.4-0.8-6-2c-4.8-3.2-6-10-2.8-14.8c3.6-5.2,2.4-12-2.8-15.6c-5.2-3.6-12-2.4-15.6,2.8
	c-3.2,4.8-10,6-14.8,2.8s-6-10-2.8-14.8c10.4-14.8,30.4-18.4,45.2-8.4c14.8,10.4,18.4,30.4,8.4,45.2
	C346.6,326.3,343,327.9,339.8,327.9z"/>
<circle class="st2" cx="347.4" cy="225.9" r="21.2"/>
<path class="st0" d="M49.8,298.7c0.8,0,1.6,0,2.4-0.4c5.6-1.2,9.2-7.2,8-12.8l-13.6-58.4l56.4-56.4c4-4,4-10.8,0-15.2
	c-4-4-10.8-4-15.2,0l-64.4,65.2l16.4,70C40.6,295.5,45,298.7,49.8,298.7z"/>
<path class="st1" d="M105,184.7L105,184.7c-10.8,0-19.6-8.8-19.6-19.6v-3.6c0-10.8,8.8-19.6,19.6-19.6l0,0V184.7z"/>
<path class="st0" d="M46.2,327.9c2,0,4.4-0.8,6-2c4.8-3.2,6-10,2.8-14.8c-3.6-5.2-2.4-12,2.8-15.6c5.2-3.6,12-2.4,15.6,2.8
	c3.2,4.8,10,6,14.8,2.8s6-10,2.8-14.8c-10.4-14.8-30.4-18.4-45.2-8.4c-14.8,10.4-18.4,30.4-8.4,45.2C39.4,326.3,43,327.9,46.2,327.9
	z"/>
<g>
	<circle class="st2" cx="38.6" cy="225.9" r="21.2"/>
	<path class="st3" d="M271.4,267.9H114.6c-5.2,0-9.6-4.4-9.6-9.6V135.9c0-5.2,4.4-9.6,9.6-9.6h156.8c5.2,0,9.6,4.4,9.6,9.6v122.8
		C281,263.5,276.6,267.9,271.4,267.9z"/>
	<path class="st3" d="M129.4,29.5c0-4,3.2-6.8,6.8-6.8h113.2c4,0,6.8,3.2,6.8,6.8v70.8c0.4,4-2.8,6.8-6.4,6.8H136.2
		c-4,0-6.8-3.2-6.8-6.8V29.5"/>
</g>
<rect x="151.8" y="107.1" class="st0" width="82.4" height="18.8"/>
<circle class="st1" cx="223" cy="55.1" r="15.2"/>
<circle class="st0" cx="223" cy="55.1" r="9.2"/>
<circle class="st4" cx="227.8" cy="50.3" r="4"/>
<circle class="st1" cx="163" cy="55.1" r="15.2"/>
<circle class="st0" cx="163" cy="55.1" r="9.2"/>
<circle class="st4" cx="168.2" cy="50.3" r="4"/>
<g>
	<path class="st1" d="M256.6,70.3L256.6,70.3c7.2,0,13.2-6,13.2-13.2v-8.8c0-7.2-6-13.2-13.2-13.2l0,0V70.3z"/>
	<path class="st1" d="M129.4,70.3L129.4,70.3c-7.2,0-13.2-6-13.2-13.2v-8.8c0-7.2,6-13.2,13.2-13.2l0,0V70.3z"/>
	<rect x="199" y="267.9" class="st1" width="57.2" height="32"/>
</g>
<rect x="206.2" y="299.9" class="st2" width="43.6" height="32"/>
<g>
	<rect x="216.2" y="331.9" class="st0" width="23.2" height="32"/>
	<rect x="140.2" y="331.9" class="st0" width="23.2" height="32"/>
</g>
<rect x="123" y="267.9" class="st1" width="57.2" height="32"/>
<rect x="130.2" y="299.9" class="st2" width="43.6" height="32"/>
<g>
	<path class="st1" d="M253,391.9c0.8-2.8,1.2-5.6,1.2-8.4c0-14.8-12-26.4-26.4-26.4c-14.8,0-26.4,12-26.4,26.4
		c0,2.8,0.4,5.6,1.2,8.4H253z"/>
	<path class="st1" d="M177,391.9c0.8-2.8,1.2-5.6,1.2-8.4c0-14.8-12-26.4-26.4-26.4c-14.8,0-26.4,12-26.4,26.4
		c0,2.8,0.4,5.6,1.2,8.4H177z"/>
</g>
</svg>
