<?xml version="1.0" encoding="utf-8"?>
<!-- Generator: Adobe Illustrator 19.2.1, SVG Export Plug-In . SVG Version: 6.00 Build 0)  -->
<svg version="1.1" id="Layer_1" xmlns="http://www.w3.org/2000/svg" xmlns:xlink="http://www.w3.org/1999/xlink" x="0px" y="0px"
	 viewBox="0 0 512 512" style="enable-background:new 0 0 512 512;" xml:space="preserve">
<style type="text/css">
	.st0{fill:#FFB344;}
	.st1{fill:#93562A;}
	.st2{fill:#AF561B;}
	.st3{fill:#7F4620;}
	.st4{fill:#A06738;}
	.st5{fill:#603813;}
	.st6{fill:#FFCF35;}
	.st7{fill:#F1333F;}
	.st8{fill:#AE283F;}
	.st9{fill:#FF9451;}
	.st10{fill:#FF6838;}
	.st11{fill:#AE4E32;}
	.st12{fill:#754C24;}
</style>
<circle class="st0" cx="256" cy="256" r="256"/>
<path id="SVGCleanerId_0" class="st1" d="M460.8,409.6l-8.5-17.5l-153-37.5v-30.8h-86.6v30.8l-153,37.5l-8.5,17.5
	C97.9,471.8,172.3,512,256,512S414.1,471.8,460.8,409.6z"/>
<g>
	<path id="SVGCleanerId_0_1_" class="st1" d="M460.8,409.6l-8.5-17.5l-153-37.5v-30.8h-86.6v30.8l-153,37.5l-8.5,17.5
		C97.9,471.8,172.3,512,256,512S414.1,471.8,460.8,409.6z"/>
</g>
<path class="st2" d="M452.3,392.1l-153-37.5v-30.8h-43.6V512c0.1,0,0.2,0,0.3,0c83.7,0,158.1-40.2,204.8-102.4L452.3,392.1z"/>
<circle class="st1" cx="155.9" cy="244" r="28.8"/>
<circle class="st3" cx="356.1" cy="244" r="28.8"/>
<path class="st4" d="M257,336.6H255c-54.8,0-99.2-44.4-99.2-99.2v-78.1c0-54.8,44.4-99.2,99.2-99.2h1.9c54.8,0,99.2,44.4,99.2,99.2
	v78.1C356.1,292.2,311.7,336.6,257,336.6z"/>
<path class="st2" d="M257,60.2h-1.3v276.5h1.3c54.8,0,99.2-44.4,99.2-99.2v-78.1C356.1,104.6,311.7,60.2,257,60.2z"/>
<circle class="st5" cx="313" cy="229.8" r="10.8"/>
<circle class="st5" cx="199" cy="229.8" r="10.8"/>
<path class="st1" d="M256.4,257.6h-0.7c-6.2,0-11.1-5-11.1-11.1v-6.1h23v6.1C267.5,252.7,262.5,257.6,256.4,257.6z"/>
<path class="st3" d="M255.7,240.4v17.2h0.7c6.2,0,11.1-5,11.1-11.1v-6.1L255.7,240.4L255.7,240.4z"/>
<path class="st6" d="M413.6,382.6L333,362.8c-14.3,28-43.4,47.3-77,47.3s-62.7-19.2-77-47.3l-80.6,19.8
	C122.2,446.5,183.8,492,256,492S389.8,446.5,413.6,382.6z"/>
<path class="st0" d="M333,362.8c-14.3,28-43.4,47.3-77,47.3c-0.1,0-0.2,0-0.3,0V492c0.1,0,0.2,0,0.3,0
	c72.2,0,133.8-45.5,157.6-109.4L333,362.8z"/>
<path class="st7" d="M375.6,373.3L333,362.8c-14.3,28-43.4,47.3-77,47.3s-62.7-19.2-77-47.3l-42.7,10.5
	c19.4,46.9,65.7,79.9,119.6,79.9C310,453.2,356.2,420.2,375.6,373.3z"/>
<path class="st8" d="M333,362.8c-14.3,28-43.4,47.3-77,47.3c-0.1,0-0.2,0-0.3,0v43.1c0.1,0,0.2,0,0.3,0c54,0,100.2-33,119.6-79.9
	L333,362.8z"/>
<path class="st0" d="M334.7,363.2l-29.6-7.3c-10.5,15.9-28.5,26.5-49.1,26.5s-38.6-10.5-49.1-26.5l-29.6,7.3
	c14.5,28.8,44.3,48.5,78.7,48.5S320.2,392,334.7,363.2z"/>
<path class="st9" d="M305.1,356c-10.5,15.9-28.5,26.5-49.1,26.5c-0.1,0-0.2,0-0.3,0v29.3c0.1,0,0.2,0,0.3,0
	c34.4,0,64.2-19.8,78.7-48.5L305.1,356z"/>
<circle class="st10" cx="144" cy="278.8" r="17"/>
<circle class="st11" cx="368" cy="278.8" r="17"/>
<path class="st12" d="M255.7,303c-16.8,0-30.5-13.7-30.5-30.5h12c0,10.2,8.3,18.5,18.5,18.5s18.5-8.3,18.5-18.5h12
	C286.2,289.3,272.5,303,255.7,303z"/>
<path class="st5" d="M255.7,291c10.2,0,18.5-8.3,18.5-18.5h12c0,16.8-13.7,30.5-30.5,30.5L255.7,291L255.7,291z"/>
</svg>
