<?xml version="1.0" encoding="utf-8"?>
<!-- Generator: Adobe Illustrator 19.2.1, SVG Export Plug-In . SVG Version: 6.00 Build 0)  -->
<svg version="1.1" id="Layer_1" xmlns="http://www.w3.org/2000/svg" xmlns:xlink="http://www.w3.org/1999/xlink" x="0px" y="0px"
	 viewBox="0 0 491.5 491.5" style="enable-background:new 0 0 491.5 491.5;" xml:space="preserve">
<style type="text/css">
	.st0{fill:#F6C358;}
	.st1{fill:#64798A;}
	.st2{fill:#FCD462;}
	.st3{fill:#D5D6DB;}
	.st4{fill:#E56353;}
	.st5{fill:#E1E6E9;}
	.st6{fill:#3A556A;}
	.st7{fill:#2F4859;}
	.st8{fill:#FFFFFF;}
	.st9{fill:#1A1A1A;}
	.st10{fill:#333333;}
</style>
<g>
	<path class="st0" d="M245.6,347.8l0.2,0.1l0,0v-0.1l0.1,0.1l0.1-0.1h0l0,0v0l61.1-40.8l0,0v-30.8c-4.6,3.2-9.1,6.6-13.2,10.4
		c-26.8,24.2-53.1,20.1-53.1,20.1c-16,0.4-38.9-16-48.6-23.7c-2.5-1.9-5-3.8-7.6-5.6v29.5l0,0L245.6,347.8z"/>
	<polygon class="st0" points="245.8,347.9 245.8,347.9 245.8,347.9 245.8,347.9 226,374.8 226,374.8 	"/>
</g>
<path class="st1" d="M180.8,81.8h38c3.5,0,6.9-0.5,10.2-1.6c6.9-2.2,17.8-6.3,26.1-9.4c7.4-2.8,15.5-2.9,23-0.3l40,14.1
	c26.9,9.9,29.7,35.2,29.7,35.2v71.5c0,0,3.5-23.9,15.8-43.4c3-4.8,4.6-10.2,4.6-15.8V70.3c0,0-3.8-30.2-33.5-37.4
	c0,0,12.1-25.7-19.2-31.8H200l0,0c-42.2,0-76.4,34.2-76.4,76.4v45.3c0,9.8,3.3,19.4,9.4,27c4.8,6,9.9,15.5,10.6,29.2v-60
	C151.1,85.6,180.8,81.8,180.8,81.8z"/>
<path class="st2" d="M240.7,306.6c0,0,26.3,4.2,53.1-20.1c4.2-3.8,8.6-7.2,13.2-10.4c0.5-0.3,0.9-0.6,1.4-0.9
	c11.9-8,34.7-30.1,39.5-84v-71.5c0,0-2.7-25.3-29.7-35.2l-40-14.1c-7.5-2.6-15.6-2.5-23,0.3c-8.3,3.2-19.2,7.2-26.1,9.4
	c-3.3,1.1-6.7,1.6-10.2,1.6h-38c0,0-29.7,3.8-37.1,37.1v60v13.9c0,0,1.3,58.4,40,84c0.3,0.2,0.5,0.4,0.8,0.6
	c2.6,1.8,5.2,3.6,7.6,5.6C201.8,290.6,224.7,307.1,240.7,306.6z"/>
<g>
	<polygon class="st3" points="266.7,376.4 256.1,391.6 265.9,453.6 290.5,408.8 	"/>
	<polygon class="st3" points="225.8,453.8 235.7,391.6 224.9,376.2 201,408.8 	"/>
	<polygon class="st3" points="226,374.8 225.2,375.9 245.8,348 245.8,347.9 245.8,347.9 	"/>
</g>
<g>
	<polygon class="st4" points="265.9,453.6 256.1,391.6 266.7,376.4 266.7,376.4 245.8,347.9 245.8,347.9 245.8,348 225.2,375.9 
		224.9,376.2 224.9,376.2 224.9,376.2 235.7,391.6 225.8,453.8 225.8,453.8 245.8,490.1 265.9,453.6 	"/>
	<polygon class="st4" points="245.9,490.4 247.8,488.5 245.8,490.2 	"/>
	<polygon class="st4" points="245.7,490.2 243.7,488.5 245.6,490.4 	"/>
	<polygon class="st4" points="245.7,490.4 245.8,490.5 245.9,490.4 245.8,490.3 245.8,490.3 245.8,490.3 	"/>
	<polygon class="st4" points="246,347.7 245.9,347.8 246,347.7 	"/>
	<polygon class="st4" points="245.8,347.7 245.8,347.9 245.8,347.8 	"/>
</g>
<g>
	<polygon class="st5" points="246,347.7 245.9,347.8 245.9,347.8 245.8,347.8 245.8,347.9 245.8,347.9 245.8,347.9 245.8,347.9 
		245.8,347.9 266.7,376.4 290.5,408.8 340,318.7 307.1,306.9 307.1,306.9 	"/>
	<polygon class="st5" points="224.9,376.2 224.9,376.2 226,374.8 245.8,347.9 245.8,347.9 245.8,347.9 245.6,347.8 184.5,306.9 
		184.5,306.9 151.5,318.7 201,408.8 	"/>
</g>
<g>
	<path class="st6" d="M491.2,463.9l-11.1-67c-3-18.1-15.5-33.1-32.7-39.4L340,318.7l28.5,57.2l-35.7,0.5l12.1,23.1l-97.2,88.9
		l-1.9,1.9l0.1,0.1h25.8h196.9C482.8,490.5,493.5,477.8,491.2,463.9z"/>
	<polygon class="st6" points="245.9,490.4 245.8,490.5 245.8,490.5 246,490.5 	"/>
</g>
<g>
	<polygon class="st7" points="265.9,453.6 245.8,490.1 245.8,490.1 245.8,490.2 247.8,488.5 345,399.5 332.9,376.5 368.5,375.9 
		340,318.7 290.5,408.8 	"/>
	<polygon class="st7" points="245.7,490.4 245.8,490.3 245.8,490.3 245.7,490.2 245.6,490.4 	"/>
</g>
<path class="st6" d="M245.7,490.4L245.7,490.4l-1.9-1.9l-97.2-88.9l12.1-23.1l-35.7-0.5l28.5-57.2L44.1,357.6
	c-17.2,6.2-29.7,21.3-32.7,39.4l-11.1,67c-2.3,13.9,8.4,26.6,22.5,26.6H220h15.2h0.2L245.7,490.4L245.7,490.4L245.7,490.4
	L245.7,490.4z"/>
<polygon class="st7" points="245.9,490.4 245.8,490.2 245.8,490.1 245.8,490.1 225.8,453.8 201,408.8 151.5,318.7 123,375.9 
	158.6,376.5 146.5,399.5 243.7,488.5 245.7,490.2 245.8,490.3 245.8,490.3 245.9,490.4 246,490.5 "/>
<circle class="st8" cx="193.5" cy="158.4" r="8.5"/>
<circle class="st9" cx="305" cy="160.2" r="10.8"/>
<circle class="st10" cx="192" cy="160.2" r="10.8"/>
<ellipse class="st0" cx="248.5" cy="241.6" rx="43.5" ry="12.3"/>
<path class="st0" d="M246.1,173.5c0,0,13.8,13.8,1.3,36.1C243.1,217.1,246.1,173.5,246.1,173.5z"/>
</svg>
