<?xml version="1.0" encoding="utf-8"?>
<!-- Generator: Adobe Illustrator 19.2.1, SVG Export Plug-In . SVG Version: 6.00 Build 0)  -->
<svg version="1.1" id="Capa_1" xmlns="http://www.w3.org/2000/svg" xmlns:xlink="http://www.w3.org/1999/xlink" x="0px" y="0px"
	 viewBox="0 0 188.1 188.1" style="enable-background:new 0 0 188.1 188.1;" xml:space="preserve">
<style type="text/css">
	.st0{fill:#EB6D4A;}
	.st1{clip-path:url(#SVGID_3_);fill:#ECC19C;}
	.st2{clip-path:url(#SVGID_5_);fill:#ECC19C;}
	.st3{clip-path:url(#SVGID_7_);fill:#C7D4E2;}
	.st4{clip-path:url(#SVGID_9_);fill:#543E36;}
	.st5{clip-path:url(#SVGID_11_);fill:#543E36;}
	.st6{clip-path:url(#SVGID_13_);fill:#543E36;}
	.st7{clip-path:url(#SVGID_15_);fill:#543E36;}
	.st8{clip-path:url(#SVGID_17_);fill:#543E36;}
	.st9{clip-path:url(#SVGID_19_);fill:#1A1A1A;}
	.st10{clip-path:url(#SVGID_21_);}
	.st11{fill:#543E36;}
	.st12{clip-path:url(#SVGID_23_);fill:#ECC19C;}
	.st13{clip-path:url(#SVGID_25_);}
	.st14{fill:#435363;}
	.st15{clip-path:url(#SVGID_27_);}
	.st16{fill:#0078EF;}
	.st17{fill:#0061C1;}
	.st18{fill:#1A1A1A;}
	.st19{fill:#ECC19C;}
</style>
<g>
	<g>
		<g>
			<circle id="SVGID_1_" class="st0" cx="94.1" cy="94.1" r="94.1"/>
		</g>
		<g>
			<defs>
				<circle id="SVGID_2_" cx="94.1" cy="94.1" r="94.1"/>
			</defs>
			<clipPath id="SVGID_3_">
				<use xlink:href="#SVGID_2_"  style="overflow:visible;"/>
			</clipPath>
			<path class="st1" d="M135.9,52.8V84c0,0.5,0,0.9,0,1.4c0,0.9-0.1,1.9-0.2,2.8c0,0.3-0.1,0.6-0.1,1c-0.1,1.3-0.3,2.6-0.6,3.9
				c-0.1,0.4-0.2,0.9-0.3,1.3c0,0.1,0,0.2-0.1,0.3c-0.1,0.4-0.2,0.9-0.3,1.3c0,0.2-0.1,0.5-0.2,0.7c-0.1,0.2-0.1,0.4-0.2,0.6
				c-0.2,0.8-0.5,1.7-0.7,2.5c-0.1,0.4-0.2,0.8-0.4,1.2c0,0,0,0.1,0,0.1c-0.1,0.3-0.2,0.7-0.4,1c0,0.1-0.1,0.2-0.1,0.3
				c-0.1,0.3-0.2,0.7-0.4,1c-0.2,0.4-0.3,0.8-0.5,1.2c-0.1,0.3-0.3,0.7-0.5,1c0,0.1-0.1,0.1-0.1,0.2c-0.2,0.4-0.3,0.7-0.5,1.1
				c-0.2,0.4-0.4,0.8-0.6,1.1c-0.4,0.8-0.8,1.5-1.2,2.2c-0.2,0.3-0.4,0.7-0.6,1c-1.6,2.7-3.3,5.3-5.3,7.6c-0.3,0.3-0.5,0.7-0.8,1
				c-0.4,0.5-0.8,0.9-1.2,1.4c-0.3,0.4-0.7,0.8-1.1,1.2c-1,1.1-2,2.1-3,3c-0.2,0.2-0.4,0.4-0.6,0.6c-0.3,0.3-0.7,0.6-1.1,0.9
				c-0.3,0.2-0.6,0.5-0.9,0.7c-0.7,0.6-1.5,1.2-2.2,1.7c-0.3,0.2-0.6,0.5-0.9,0.7c-0.5,0.4-1,0.7-1.6,1.1c-0.3,0.2-0.6,0.4-0.9,0.6
				c-1,0.6-2.1,1.2-3.2,1.8c-0.3,0.1-0.5,0.3-0.8,0.4c-0.3,0.1-0.5,0.2-0.8,0.4c-0.3,0.2-0.7,0.3-1,0.4c-0.1,0.1-0.3,0.1-0.4,0.2
				c-0.4,0.2-0.8,0.3-1.2,0.5c-0.5,0.2-1,0.3-1.5,0.5c-0.3,0.1-0.7,0.2-1.1,0.3c0,0,0,0-0.1,0c-0.3,0.1-0.7,0.2-1,0.2
				c-0.1,0-0.2,0-0.3,0.1c-0.3,0.1-0.6,0.1-0.9,0.1c-0.4,0.1-0.8,0.1-1.2,0.1c-0.1,0-0.3,0-0.4,0c-0.3,0-0.7,0-1,0h0
				c-0.3,0-0.6,0-1,0c-0.1,0-0.2,0-0.4,0c-0.3,0-0.6,0-0.9-0.1c-0.1,0-0.1,0-0.2,0c-0.4-0.1-0.8-0.1-1.2-0.2c-0.3-0.1-0.7-0.1-1-0.2
				c-1.8-0.4-3.6-1-5.4-1.8c-1.6-0.7-3.1-1.5-4.7-2.5c-0.8-0.5-1.6-1-2.4-1.5c-0.4-0.3-0.8-0.6-1.2-0.8c-1.2-0.9-2.4-1.9-3.6-2.9
				c-0.3-0.3-0.7-0.6-1-0.9c-0.3-0.3-0.7-0.6-1-0.9c-0.8-0.8-1.6-1.6-2.3-2.4c-0.3-0.3-0.6-0.6-0.9-1c-0.8-0.9-1.6-1.9-2.4-2.9
				c-0.3-0.4-0.6-0.7-0.9-1.1c-1-1.4-2-2.8-3-4.3c-0.2-0.4-0.5-0.8-0.7-1.2c-0.3-0.5-0.6-1-0.8-1.5c-1-1.9-2-3.8-2.8-5.8
				c-0.1-0.3-0.2-0.6-0.3-0.9c-0.2-0.4-0.3-0.8-0.4-1.1c-0.2-0.5-0.4-1.1-0.6-1.6c-0.2-0.5-0.4-1.1-0.5-1.7
				c-0.2-0.5-0.3-1.1-0.5-1.6c-0.2-0.6-0.3-1.2-0.5-1.8c0-0.1,0-0.1,0-0.2c-0.2-0.8-0.4-1.7-0.5-2.5c-0.2-1.1-0.4-2.2-0.5-3.4
				c-0.1-0.4-0.1-0.7-0.1-1.1c0-0.4-0.1-0.8-0.1-1.1c-0.1-0.7-0.1-1.4-0.1-2.1c0-0.5,0-0.9,0-1.4V52.8c0-23.1,18.7-41.8,41.8-41.9h0
				c3.2,0,6.3,0.4,9.3,1c2.7,0.6,5.3,1.5,7.8,2.6c3.4,1.5,6.5,3.5,9.4,5.8c2.4,2,4.6,4.2,6.4,6.6C132.6,34.1,135.9,43,135.9,52.8z"
				/>
		</g>
		<g>
			<defs>
				<circle id="SVGID_4_" cx="94.1" cy="94.1" r="94.1"/>
			</defs>
			<clipPath id="SVGID_5_">
				<use xlink:href="#SVGID_4_"  style="overflow:visible;"/>
			</clipPath>
			<path class="st2" d="M148.6,200.7L148.6,200.7l-109.1,0v0c0-6.2,1-12.1,2.9-17.6c0.3-1,0.7-2,1.1-3v0c0.4-1,0.8-1.9,1.3-2.9
				c1.8-3.8,4-7.3,6.6-10.6c0.7-0.8,1.3-1.6,2-2.4c0.3-0.4,0.7-0.8,1.1-1.2c0.4-0.4,0.7-0.7,1.1-1.1c1.8-1.8,3.8-3.5,5.9-5.1
				c1-0.8,2.1-1.5,3.2-2.2c1.1-0.7,2.2-1.3,3.3-2c0,0,0,0,0,0c0.4-0.2,0.9-0.5,1.3-0.8c0.9-0.5,1.7-1.1,2.5-1.7
				c0.4-0.3,0.8-0.6,1.2-0.9c0.9-0.7,1.8-1.5,2.7-2.4c0.3-0.3,0.6-0.6,0.8-0.8c0.6-0.6,1.1-1.2,1.6-1.9c0.3-0.3,0.5-0.6,0.8-0.9
				c0.2-0.3,0.5-0.6,0.7-1c1.8-2.6,3.3-5.4,4.4-8.3c1.3-3.6,2-7.6,2-11.6l7.9,0l8.2,0c0,4,0.7,7.9,2,11.5c1.1,3,2.5,5.8,4.3,8.4
				c1.9,2.7,4.1,5,6.6,7c0.4,0.3,0.8,0.6,1.1,0.9c0.4,0.3,0.8,0.5,1.1,0.8c0.1,0.1,0.2,0.1,0.2,0.2c0.4,0.2,0.7,0.5,1.1,0.7
				c0.4,0.3,0.9,0.5,1.3,0.8c0.1,0,0.1,0.1,0.2,0.1c0.9,0.5,1.8,1,2.7,1.6c0.4,0.3,0.8,0.5,1.3,0.8c0.9,0.6,1.7,1.1,2.5,1.8
				c0,0,0,0,0,0h0c2.1,1.6,4,3.2,5.9,5.1C142.5,172,148.6,185.6,148.6,200.7z"/>
		</g>
		<g>
			<defs>
				<circle id="SVGID_6_" cx="94.1" cy="94.1" r="94.1"/>
			</defs>
			<clipPath id="SVGID_7_">
				<use xlink:href="#SVGID_6_"  style="overflow:visible;"/>
			</clipPath>
			<path class="st3" d="M148.6,200.7H39.5c0-6.2,1-12.1,2.9-17.6c0.3-1,0.7-2,1.1-3c0,0,0,0,0,0c0.4-1,0.8-1.9,1.3-2.9
				c1.8-3.8,4-7.3,6.6-10.6c0.7-0.8,1.3-1.6,2-2.4c0.3-0.4,0.7-0.8,1.1-1.2c0.4-0.4,0.7-0.7,1.1-1.1c1.8-1.8,3.8-3.5,5.9-5.1
				c1-0.8,2.1-1.5,3.2-2.2c1.1-0.7,2.2-1.4,3.3-2c0,0,0,0,0,0v0c0.4-0.2,0.9-0.5,1.3-0.8c1.3-0.8,2.5-1.6,3.7-2.6c0,0,0,0,0,0
				c5.3,5.4,12.7,8.8,21,8.9h0.1c8.2,0,15.7-3.4,21-8.8l0,0c0.7,0.6,1.5,1.2,2.3,1.7c0.1,0.1,0.2,0.1,0.2,0.2
				c0.4,0.2,0.8,0.5,1.1,0.7c0.4,0.3,0.9,0.5,1.3,0.7c0.1,0,0.1,0.1,0.2,0.1c0.9,0.5,1.8,1,2.7,1.6c0.4,0.3,0.8,0.5,1.3,0.8
				c0.9,0.5,1.7,1.1,2.5,1.8h0c2.1,1.6,4.1,3.3,5.9,5.1C142.5,172,148.6,185.6,148.6,200.7z"/>
		</g>
		<g>
			<defs>
				<circle id="SVGID_8_" cx="94.1" cy="94.1" r="94.1"/>
			</defs>
			<clipPath id="SVGID_9_">
				<use xlink:href="#SVGID_8_"  style="overflow:visible;"/>
			</clipPath>
			<path class="st4" d="M135.9,84c0,0.5,0,0.9,0,1.4c0,0.9-0.1,1.9-0.2,2.8c0,0.3-0.1,0.6-0.1,1c-0.1,1.3-0.3,2.6-0.6,3.9
				c-0.1,0.4-0.2,0.9-0.3,1.3c0,0.1,0,0.2-0.1,0.3c-0.1,0.4-0.2,0.9-0.3,1.3c-0.1,0.2-0.1,0.5-0.2,0.7c0,0.2-0.1,0.4-0.1,0.5
				c-0.2,0.8-0.5,1.7-0.7,2.5c-0.1,0.4-0.2,0.8-0.4,1.2c0,0,0,0.1,0,0.1c-0.1,0.3-0.2,0.7-0.4,1c0,0.1-0.1,0.2-0.1,0.3
				c-0.1,0.3-0.2,0.7-0.4,1c-0.2,0.4-0.3,0.8-0.5,1.2c-0.1,0.3-0.3,0.7-0.5,1c0,0.1-0.1,0.1-0.1,0.2c-0.2,0.4-0.3,0.7-0.5,1.1
				c-0.2,0.4-0.4,0.8-0.6,1.1c-0.4,0.8-0.8,1.5-1.2,2.2c-0.2,0.3-0.4,0.7-0.6,1c-1.6,2.7-3.3,5.3-5.3,7.6c-0.3,0.3-0.5,0.7-0.8,1
				c-0.4,0.5-0.8,0.9-1.2,1.4c-0.3,0.4-0.7,0.8-1.1,1.2c-1,1.1-2,2.1-3,3c-0.2,0.2-0.4,0.4-0.6,0.6c-0.3,0.3-0.7,0.6-1.1,0.9
				c-0.3,0.2-0.6,0.5-0.9,0.7c-0.7,0.6-1.5,1.2-2.2,1.7c-0.3,0.2-0.6,0.5-0.9,0.7c-0.5,0.4-1,0.7-1.6,1.1c-0.3,0.2-0.6,0.4-0.9,0.6
				c-1,0.6-2.1,1.2-3.2,1.8c-0.3,0.1-0.5,0.3-0.8,0.4c-0.3,0.1-0.5,0.2-0.8,0.4c-0.3,0.2-0.7,0.3-1,0.4c-0.1,0.1-0.3,0.1-0.4,0.2
				c-0.4,0.2-0.8,0.3-1.2,0.5c-0.5,0.2-1,0.3-1.5,0.5c-0.3,0.1-0.7,0.2-1.1,0.3c0,0,0,0-0.1,0c-0.3,0.1-0.7,0.2-1,0.2
				c-0.1,0-0.2,0-0.3,0.1c-0.3,0.1-0.6,0.1-0.9,0.1c-0.4,0.1-0.8,0.1-1.2,0.1c-0.1,0-0.3,0-0.4,0c-0.3,0-0.7,0-1,0h0
				c-0.3,0-0.6,0-1,0c-0.1,0-0.2,0-0.4,0c-0.3,0-0.6,0-0.9-0.1c-0.1,0-0.1,0-0.2,0c-0.4-0.1-0.8-0.1-1.2-0.2c-0.3-0.1-0.7-0.1-1-0.2
				c-1.8-0.4-3.6-1-5.4-1.8c-1.6-0.7-3.1-1.5-4.7-2.5c-0.8-0.5-1.6-1-2.4-1.5c-0.4-0.3-0.8-0.6-1.2-0.8c-1.2-0.9-2.4-1.9-3.6-2.9
				c-0.3-0.3-0.7-0.6-1-0.9c-0.3-0.3-0.7-0.6-1-0.9c-0.8-0.8-1.6-1.6-2.3-2.4c-0.3-0.3-0.6-0.6-0.9-1c-0.8-0.9-1.6-1.9-2.4-2.9
				c-0.3-0.4-0.6-0.7-0.9-1.1c-1-1.4-2-2.8-3-4.3c-0.2-0.4-0.5-0.8-0.7-1.2c-0.3-0.5-0.6-1-0.8-1.5c-1-1.9-2-3.8-2.8-5.8
				c-0.1-0.3-0.2-0.6-0.3-0.9c-0.2-0.4-0.3-0.8-0.4-1.1c-0.2-0.5-0.4-1.1-0.6-1.6c-0.2-0.5-0.4-1.1-0.5-1.7
				c-0.2-0.5-0.3-1.1-0.5-1.6c-0.2-0.6-0.3-1.2-0.5-1.8c0-0.1,0-0.1,0-0.2c-0.2-0.8-0.4-1.7-0.5-2.5c-0.2-1.1-0.4-2.2-0.5-3.4
				c-0.1-0.4-0.1-0.7-0.1-1.1c0-0.4-0.1-0.8-0.1-1.1c-0.1-0.7-0.1-1.4-0.1-2.1c0-0.5,0-0.9,0-1.4l6.7,13.1l11.5,5l13.6,1.2l10.1,0.9
				h0.1l9.4,0.9l21,1.9L135.9,84z"/>
		</g>
		<g>
			<defs>
				<circle id="SVGID_10_" cx="94.1" cy="94.1" r="94.1"/>
			</defs>
			<clipPath id="SVGID_11_">
				<use xlink:href="#SVGID_10_"  style="overflow:visible;"/>
			</clipPath>
			<path class="st5" d="M127,27c-2,4.6-4.7,8.9-7.9,12.9c-0.2,0.2-0.4,0.5-0.6,0.7c-6.4,7.8-14.9,13.8-24.6,17.3
				c-2.5,0.9-5.2,1.7-7.9,2.3c-1.8,0.4-3.6,0.7-5.5,0.9c-2.1,0.2-4.3,0.4-6.5,0.4c-2.5,0-5-0.2-7.4-0.5c-2.4-0.3-4.7-0.7-7-1.3
				c-1.3-0.3-2.6-0.7-3.8-1.1c-1.2-0.4-2.5-0.9-3.7-1.4v-4.2C52.2,29.7,70.9,11,94,10.9h0c3.2,0,6.3,0.4,9.3,1
				c2.7,0.6,5.3,1.5,7.8,2.6c3.4,1.5,6.5,3.5,9.4,5.8C123,22.3,125.1,24.5,127,27z"/>
		</g>
		<g>
			<defs>
				<circle id="SVGID_12_" cx="94.1" cy="94.1" r="94.1"/>
			</defs>
			<clipPath id="SVGID_13_">
				<use xlink:href="#SVGID_12_"  style="overflow:visible;"/>
			</clipPath>
			<path class="st6" d="M135.9,52.8V61c-7.1-5.5-13-12.5-17.3-20.5c0,0,0,0,0,0c-4.2-7.8-6.8-16.6-7.4-25.9c3.4,1.5,6.5,3.5,9.4,5.8
				c2.4,2,4.6,4.2,6.4,6.6C132.6,34.1,135.9,43,135.9,52.8z"/>
		</g>
		<g>
			<defs>
				<circle id="SVGID_14_" cx="94.1" cy="94.1" r="94.1"/>
			</defs>
			<clipPath id="SVGID_15_">
				<use xlink:href="#SVGID_14_"  style="overflow:visible;"/>
			</clipPath>
			<path class="st7" d="M57.1,56c-0.4,0.8-0.8,1.6-1.2,2.4c-0.2,0.3-0.3,0.7-0.5,1c-2,4.5-3,8.9-3.2,12.9c0,0.1,0,0.2,0,0.3V56.5
				c0-0.6,0-1.1,0-1.7C53.9,55.2,55.5,55.7,57.1,56z"/>
		</g>
		<g>
			<defs>
				<circle id="SVGID_16_" cx="94.1" cy="94.1" r="94.1"/>
			</defs>
			<clipPath id="SVGID_17_">
				<use xlink:href="#SVGID_16_"  style="overflow:visible;"/>
			</clipPath>
			<path class="st8" d="M131.1,56c0.6,1.1,1.2,2.2,1.7,3.4c2.1,4.6,3.1,9.2,3.2,13.3V56.5c0-0.6,0-1.1,0-1.7
				C134.3,55.2,132.7,55.6,131.1,56z"/>
		</g>
		<g>
			<defs>
				<circle id="SVGID_18_" cx="94.1" cy="94.1" r="94.1"/>
			</defs>
			<clipPath id="SVGID_19_">
				<use xlink:href="#SVGID_18_"  style="overflow:visible;"/>
			</clipPath>
			<path class="st9" d="M131,60.2c0-0.2-0.1-0.3-0.3-0.3c-1.5-0.2-8.1-1.1-15.3-1.1c-8.1,0-18.6,2.5-20.5,2.5h-1.6
				c-0.9,0-3.6-0.6-7.1-1.1c-4-0.7-9-1.4-13.4-1.4c-5.2,0-10.2,0.5-13.1,0.8c-1,0.1-1.8,0.2-2.2,0.3c-0.2,0-0.3,0.2-0.3,0.3
				l-0.1,4.4c0,0.2,0.1,0.3,0.2,0.3l0.5,0.2c0.7,0.3,0.7,13.4,4.6,16.7c2.3,1.9,4.4,3.1,13.2,3.1c5.1,0,8.3-1.4,11.3-5.4
				c2.2-2.9,4.1-9.9,4.1-9.9c0.6-2.9,2.7-3.1,3.1-3.1c0,0,0,0,0,0c0.1,0,2.5,0,3.1,3.1c0,0,1.9,6.9,4.1,9.9c3,4.1,6.2,5.4,11.3,5.4
				c8.8,0,10.8-1.1,13.2-3.1c3.9-3.3,3.9-16.5,4.6-16.7l0.5-0.2c0.1-0.1,0.2-0.2,0.2-0.3L131,60.2z M86.9,75.8c-1.3,3-4.6,7-9.3,7.2
				c-14,0.7-14.7-3.2-15.6-6.3c-0.9-3.1-1.2-5.8-0.8-8.9c0.4-3.1,1.2-4.9,2.6-5.8c0.6-0.4,1.3-0.8,3-1c1.5-0.2,3.8-0.4,7.7-0.4
				c2.3,0,4.4,0.2,6.2,0.5c5,0.8,8.4,2.5,8.4,4.2C89.1,66.3,88.8,71.2,86.9,75.8z M126.2,76.6c-0.9,3.1-1.6,7-15.6,6.3
				c-4.7-0.2-8-4.2-9.3-7.2c-1.9-4.5-2.2-9.5-2.2-10.6c0-2.3,6.4-4.7,14.6-4.7c8.2,0,9.5,0.6,10.7,1.4c1.4,0.9,2.2,2.7,2.6,5.8
				C127.3,70.8,127.1,73.5,126.2,76.6z"/>
		</g>
		<g>
			<defs>
				<circle id="SVGID_20_" cx="94.1" cy="94.1" r="94.1"/>
			</defs>
			<clipPath id="SVGID_21_">
				<use xlink:href="#SVGID_20_"  style="overflow:visible;"/>
			</clipPath>
			<g class="st10">
				<path class="st11" d="M94.1,90.6l0,10.1l0,3.5v2.8l0,9.3v0l0,0h0l0,0L53.6,95.8c0-0.1,0-0.1,0-0.2c-0.2-0.8-0.4-1.7-0.5-2.5
					c-0.2-1.1-0.4-2.2-0.5-3.4c-0.1-0.4-0.1-0.7-0.1-1.1c0-0.4-0.1-0.8-0.1-1.1c-0.1-0.7-0.1-1.4-0.1-2.1c0-0.5,0-0.9,0-1.4V71.8
					c0,0.2,0,0.3,0,0.5c0.1,3,0.6,6.2,1.5,9.6c0.7,2.6,1.6,4.9,2.6,7.1v0c2.7,5.6,6.3,9.4,9.6,10c0.2,0,0.4,0.1,0.6,0.1
					c1.3,0.1,2.6,0.2,4,0.2c5.2,0,9.9-4.2,12.8-5.9c0,0,0,0,0.1,0c0.2-0.1,0.3-0.2,0.4-0.3C84,93,84,93,84,93
					C86.5,91.6,90.1,90.7,94.1,90.6L94.1,90.6L94.1,90.6z"/>
				<path class="st11" d="M135.9,71.8l0,12.3c0,3.1-0.3,6.1-0.8,9c-0.2,1.2-0.5,2.3-0.8,3.5l-9.5,13.7l-30.8,6.1h0l0,0v0l0-25.7h0.1
					c4,0,7.5,0.9,10,2.3c0,0,0.1,0,0.1,0.1c0.1,0.1,0.3,0.2,0.5,0.3c0,0,0,0,0.1,0c2.9,1.7,7.6,5.9,12.8,5.9c1.4,0,2.7-0.1,4-0.2
					c0.2,0,0.4,0,0.6-0.1c3.3-0.6,6.9-4.4,9.6-10v0c1-2.1,1.9-4.5,2.6-7.1c0.9-3.4,1.4-6.7,1.5-9.7C135.9,72,135.9,71.9,135.9,71.8z
					"/>
			</g>
		</g>
		<g>
			<defs>
				<circle id="SVGID_22_" cx="94.1" cy="94.1" r="94.1"/>
			</defs>
			<clipPath id="SVGID_23_">
				<use xlink:href="#SVGID_22_"  style="overflow:visible;"/>
			</clipPath>
			<ellipse class="st12" cx="94.1" cy="120" rx="10.3" ry="3.4"/>
		</g>
		<g>
			<defs>
				<circle id="SVGID_24_" cx="94.1" cy="94.1" r="94.1"/>
			</defs>
			<clipPath id="SVGID_25_">
				<use xlink:href="#SVGID_24_"  style="overflow:visible;"/>
			</clipPath>
			<g class="st13">
				<path class="st14" d="M64.1,155.2v56.6h-4.4v-53.4c0.6-0.5,1.2-0.9,1.8-1.4C62.4,156.3,63.2,155.7,64.1,155.2z"/>
				<polygon class="st14" points="124,155.2 124,200.7 124,211.7 128.4,211.7 128.4,200.7 128.4,158.4 				"/>
			</g>
		</g>
		<g>
			<defs>
				<circle id="SVGID_26_" cx="94.1" cy="94.1" r="94.1"/>
			</defs>
			<clipPath id="SVGID_27_">
				<use xlink:href="#SVGID_26_"  style="overflow:visible;"/>
			</clipPath>
			<g class="st15">
				<g>
					<polygon class="st0" points="82.1,151.7 94.1,166 106,151.7 					"/>
					<path class="st0" d="M94.1,225.4H87l5.1-65.8c0.2,0.8,3.7,0.8,3.9,0l5.1,65.8H94.1z"/>
				</g>
				<g>
					<path class="st16" d="M94.1,151.6L94.1,151.6L94.1,151.6l-5,8.4l-4.6,7.8l-12.6-17.4c0.4-0.3,0.8-0.6,1.2-0.9c0,0,0,0,0,0
						c2.5-2,4.8-4.4,6.6-7L94.1,151.6L94.1,151.6z"/>
					<path class="st17" d="M116.3,150.4l-12.6,17.4l-4.6-7.8l-5-8.3l0-0.1l14.4-9.2c1.9,2.7,4.1,5,6.6,7
						C115.5,149.8,115.9,150.1,116.3,150.4z"/>
				</g>
			</g>
		</g>
	</g>
</g>
<ellipse class="st18" cx="73.6" cy="71.9" rx="2.1" ry="2.5"/>
<ellipse class="st18" cx="116.6" cy="71.9" rx="2.1" ry="2.5"/>
<path class="st19" d="M93.9,99.2c0,0,4.2,4.2,0.4,11C93,112.5,93.9,99.2,93.9,99.2z"/>
</svg>
