<?xml version="1.0" encoding="utf-8"?>
<!-- Generator: Adobe Illustrator 19.2.1, SVG Export Plug-In . SVG Version: 6.00 Build 0)  -->
<svg version="1.1" id="Layer_1" xmlns="http://www.w3.org/2000/svg" xmlns:xlink="http://www.w3.org/1999/xlink" x="0px" y="0px"
	 viewBox="0 0 512 512" style="enable-background:new 0 0 512 512;" xml:space="preserve">
<style type="text/css">
	.st0{fill:#E7AF5B;}
	.st1{fill:#D39746;}
	.st2{fill:#C4873D;}
	.st3{fill:#1A1A1A;}
	.st4{fill:#93562A;}
	.st5{fill:#7F4620;}
	.st6{fill:#333333;}
	.st7{fill:#A06738;}
</style>
<circle class="st0" cx="256" cy="256" r="256"/>
<path class="st1" d="M460.8,409.6l-8.5-17.5l-153-37.5v-30.8h-86.6v30.8l-153,37.5l-8.5,17.5C97.9,471.8,172.3,512,256,512
	S414.1,471.8,460.8,409.6z"/>
<path class="st2" d="M460.8,409.6l-8.5-17.5l-153-37.5v-30.8h-43V512C339.9,511.9,414.2,471.7,460.8,409.6z"/>
<circle class="st1" cx="155.9" cy="244" r="28.8"/>
<circle class="st2" cx="356.1" cy="244" r="28.8"/>
<path class="st3" d="M370.2,164.8c0-57.8-51.1-104.7-114.2-104.7l0,0c-63.1,0-114.2,46.9-114.2,104.7v94.6h228.4L370.2,164.8
	L370.2,164.8z"/>
<path d="M370.2,164.8c0-57.7-51-104.5-113.9-104.6v199.3h113.9V164.8z"/>
<path class="st0" d="M260.3,336.6h-8.6c-52.9,0-95.9-42.9-95.9-95.9v-66.6c0-52.9,42.9-95.9,95.9-95.9h8.6
	c52.9,0,95.9,42.9,95.9,95.9v66.6C356.1,293.7,313.2,336.6,260.3,336.6z"/>
<path class="st1" d="M256.3,82.2v254.5h3.9c52.9,0,95.9-42.9,95.9-95.9v-66.6c0-1.2,0-2.4-0.1-3.5
	C354.2,121.6,310.3,82.3,256.3,82.2z"/>
<path class="st4" d="M255.7,315c-16.8,0-30.5-13.7-30.5-30.5h12c0,10.2,8.3,18.5,18.5,18.5s18.5-8.3,18.5-18.5h12
	C286.2,301.3,272.5,315,255.7,315z"/>
<path class="st5" d="M255.7,303c10.2,0,18.5-8.3,18.5-18.5h12c0,16.8-13.7,30.5-30.5,30.5L255.7,303L255.7,303z"/>
<circle class="st3" cx="313" cy="238.2" r="10.8"/>
<circle class="st6" cx="199" cy="238.2" r="10.8"/>
<path class="st1" d="M260.8,266.6h-9.6c-8,0-14.4-6.4-14.4-14.4v-2.8h38.4v2.8C275.2,260.1,268.8,266.6,260.8,266.6z"/>
<path class="st2" d="M256.3,249.4v17.2h4.5c8,0,14.4-6.4,14.4-14.4v-2.8H256.3z"/>
<path class="st3" d="M362.4,157c0,29-53.5,23.1-106.4,23.1S149.6,186,149.6,157S203.2,68.8,256,68.8S362.4,128.1,362.4,157z"/>
<path d="M256.3,68.8v111.3c52.7,0,106,5.8,106-23.1S309.1,69,256.3,68.8z"/>
<rect x="288.5" y="211.3" class="st3" width="44.6" height="14.9"/>
<rect x="178.9" y="211.3" class="st6" width="44.6" height="14.9"/>
<path class="st7" d="M452.3,392.1l-140.5-34.5l-25.1,25.1c-17,17-44.5,17-61.4,0l-25.1-25.1L59.7,392.1l-8.5,17.5
	C97.9,471.8,172.3,512,256,512s158.1-40.2,204.8-102.4L452.3,392.1z"/>
<g>
	<path class="st4" d="M460.8,409.6l-8.5-17.5l-140.5-34.5l-25.1,25.1c-8.4,8.4-19.4,12.6-30.4,12.7V512
		C339.9,511.9,414.2,471.7,460.8,409.6z"/>
	<path class="st4" d="M178.9,362.8L59.7,392.1l-8.5,17.5c31.7,42.2,76.2,74.3,127.7,90.6V362.8z"/>
</g>
<path class="st5" d="M452.3,392.1l-119.2-29.2v137.3c51.5-16.2,96-48.3,127.7-90.6L452.3,392.1z"/>
</svg>
