<?xml version="1.0" encoding="utf-8"?>
<!-- Generator: Adobe Illustrator 19.2.1, SVG Export Plug-In . SVG Version: 6.00 Build 0)  -->
<svg version="1.1" id="Capa_1" xmlns="http://www.w3.org/2000/svg" xmlns:xlink="http://www.w3.org/1999/xlink" x="0px" y="0px"
	 viewBox="0 0 58 58" style="enable-background:new 0 0 58 58;" xml:space="preserve">
<style type="text/css">
	.st0{fill:#E27305;}
	.st1{fill:#F99041;}
	.st2{fill:#A02E07;}
	.st3{fill:#FFFFFF;}
	.st4{fill:#C4570C;}
	.st5{fill:#556080;}
	.st6{fill:#B2170B;}
	.st7{fill:#35495E;}
</style>
<g>
	<path class="st0" d="M29,15c-11.6,0-21,2.7-21,6v29c0,2.2,1.8,4,4,4h34c2.2,0,4-1.8,4-4V21C50,17.7,40.6,15,29,15z"/>
	<path class="st1" d="M43.8,48.1c-0.3,0-0.5-0.1-0.7-0.3s-0.3-0.4-0.3-0.7s0.1-0.5,0.3-0.7c0.4-0.4,1-0.4,1.4,0
		c0.2,0.2,0.3,0.4,0.3,0.7s-0.1,0.5-0.3,0.7S44.1,48.1,43.8,48.1z"/>
	<path class="st1" d="M44.2,39.6c-0.3,0-0.5-0.1-0.7-0.3s-0.3-0.4-0.3-0.7s0.1-0.5,0.3-0.7c0.3-0.4,1-0.4,1.4,0
		c0.2,0.2,0.3,0.4,0.3,0.7s-0.1,0.5-0.3,0.7S44.5,39.6,44.2,39.6z"/>
	<path class="st1" d="M44,43.9c-0.3,0-0.5-0.1-0.7-0.3S43,43.2,43,42.9s0.1-0.5,0.3-0.7c0.4-0.4,1-0.4,1.4,0
		c0.2,0.2,0.3,0.5,0.3,0.7s-0.1,0.5-0.3,0.7C44.5,43.8,44.3,43.9,44,43.9z"/>
	<path class="st1" d="M40.7,46.2c-0.3,0-0.5-0.1-0.7-0.3s-0.3-0.4-0.3-0.7s0.1-0.5,0.3-0.7c0.4-0.4,1-0.4,1.4,0
		c0.2,0.2,0.3,0.4,0.3,0.7s-0.1,0.5-0.3,0.7C41.2,46,40.9,46.2,40.7,46.2z"/>
	<path class="st1" d="M38.3,51c-0.3,0-0.5-0.1-0.7-0.3s-0.3-0.4-0.3-0.7s0.1-0.5,0.3-0.7c0.4-0.4,1-0.4,1.4,0
		c0.2,0.2,0.3,0.5,0.3,0.7s-0.1,0.5-0.3,0.7S38.6,51,38.3,51z"/>
	<path class="st1" d="M47.5,44.8c-0.3,0-0.5-0.1-0.7-0.3s-0.3-0.4-0.3-0.7s0.1-0.5,0.3-0.7c0.4-0.4,1-0.4,1.4,0
		c0.2,0.2,0.3,0.4,0.3,0.7s-0.1,0.5-0.3,0.7C48,44.6,47.8,44.8,47.5,44.8z"/>
	<path class="st1" d="M15.5,49.5c-0.3,0-0.5-0.1-0.7-0.3s-0.3-0.4-0.3-0.7s0.1-0.5,0.3-0.7c0.4-0.4,1.1-0.4,1.4,0
		c0.2,0.2,0.3,0.4,0.3,0.7s-0.1,0.5-0.3,0.7C16,49.4,15.8,49.5,15.5,49.5z"/>
	<path class="st1" d="M15.1,41c-0.3,0-0.5-0.1-0.7-0.3s-0.3-0.4-0.3-0.7s0.1-0.5,0.3-0.7c0.4-0.4,1-0.4,1.4,0
		c0.2,0.2,0.3,0.5,0.3,0.7s-0.1,0.5-0.3,0.7S15.4,41,15.1,41z"/>
	<path class="st1" d="M15.3,45.2c-0.3,0-0.5-0.1-0.7-0.3s-0.3-0.4-0.3-0.7s0.1-0.5,0.3-0.7c0.4-0.4,1-0.4,1.4,0
		c0.2,0.2,0.3,0.4,0.3,0.7s-0.1,0.5-0.3,0.7C15.8,45.1,15.6,45.2,15.3,45.2z"/>
	<path class="st1" d="M18.6,47.5c-0.3,0-0.5-0.1-0.7-0.3s-0.3-0.5-0.3-0.7s0.1-0.5,0.3-0.7c0.4-0.4,1-0.4,1.4,0
		c0.2,0.2,0.3,0.4,0.3,0.7s-0.1,0.5-0.3,0.7C19.2,47.4,18.9,47.5,18.6,47.5z"/>
	<path class="st1" d="M21,52.3c-0.3,0-0.5-0.1-0.7-0.3S20,51.6,20,51.3s0.1-0.5,0.3-0.7c0.4-0.4,1-0.4,1.4,0
		c0.2,0.2,0.3,0.4,0.3,0.7s-0.1,0.5-0.3,0.7S21.3,52.3,21,52.3z"/>
	<path class="st1" d="M11.8,46.1c-0.3,0-0.5-0.1-0.7-0.3s-0.3-0.4-0.3-0.7s0.1-0.5,0.3-0.7c0.4-0.4,1.1-0.4,1.4,0
		c0.2,0.2,0.3,0.4,0.3,0.7s-0.1,0.5-0.3,0.7S12.1,46.1,11.8,46.1z"/>
	<path class="st2" d="M40.6,40.8c0.5,2.1-3.4,5.9-9.4,6.1c-6,0.2-11.8-3.1-12.3-5.3c-0.5-2.1,5.6,1.3,11.6,1.1
		C36.5,42.4,40,38.7,40.6,40.8z"/>
	<circle class="st3" cx="38" cy="30" r="6"/>
	<path class="st4" d="M40.7,58H17.3c-0.7,0-1.3-0.6-1.3-1.3V54h26v2.7C42,57.4,41.4,58,40.7,58z"/>
	<path class="st5" d="M50,25c0-3.3-9.4-6-21-6S8,21.7,8,25v-7l20-7l22,7V25z"/>
	<circle class="st5" cx="39" cy="31" r="2"/>
	<circle class="st3" cx="20" cy="30" r="6"/>
	<circle class="st5" cx="18" cy="31" r="2"/>
	<path class="st6" d="M38.2,44.6c-1.1-0.7-4.2-1-7.7-0.9c-4.2,0.1-7.4,0.7-7.2,1.6c2.2,0.8,4.4,1.6,7.6,1.5
		C34.5,46.8,36.6,45.7,38.2,44.6z"/>
	<path class="st7" d="M53,13h-2.7C48,13,46,11.2,46,8.9C46,4,42.1,0,37.2,0h-2.5c-1,0-1.9,0.6-2.4,1.5l0,0c-0.2,0.3-0.2,0.6-0.3,1
		C31.9,4.2,31,4,29,4s-2.9,0.2-3-1.5c0-0.3-0.1-0.7-0.3-1l0,0C25.3,0.6,24.4,0,23.3,0h-2.5C15.9,0,12,4,12,8.9c0,2.3-2,4.1-4.3,4.1
		H5.2c-2.1,0-4,1.5-4.2,3.6C0.8,19,2.7,21,5,21h3c0-3.3,9.4-6,21-6s21,2.7,21,6h2.8c2.1,0,4-1.5,4.2-3.6C57.2,15,55.3,13,53,13z"/>
</g>
</svg>
